<svg xmlns="http://www.w3.org/2000/svg" xmlns:xlink="http://www.w3.org/1999/xlink" width="500" zoomAndPan="magnify" viewBox="0 0 375 374.999991" height="500" preserveAspectRatio="xMidYMid meet" version="1.0"><defs><clipPath id="id1"><path d="M 99.480469 50.765625 L 275.722656 50.765625 L 275.722656 324.515625 L 99.480469 324.515625 Z M 99.480469 50.765625 " clip-rule="nonzero"/></clipPath></defs><path fill="#c6ba87" d="M 229.667969 55.984375 C 230.167969 57.082031 227.527344 57.503906 227.75 56.304688 C 228.128906 55.9375 228.878906 55.941406 229.667969 55.984375 " fill-opacity="1" fill-rule="evenodd"/><path fill="#c6ba87" d="M 222.953125 58.863281 C 221.78125 58.863281 220.609375 58.863281 219.4375 58.863281 C 219.816406 58.335938 222.773438 57.523438 222.953125 58.863281 " fill-opacity="1" fill-rule="evenodd"/><path fill="#d6cb9f" d="M 164.765625 71.96875 C 158.449219 72.585938 154.019531 73.050781 149.097656 74.847656 C 147.832031 75.308594 144.511719 76.535156 145.898438 78.683594 C 153.5 73.332031 163.257812 73.609375 172.757812 72.609375 C 170.707031 70.367188 167.496094 71.703125 164.765625 71.96875 Z M 218.15625 69.734375 C 218.3125 71.03125 220.65625 72.726562 222.632812 73.25 C 222.535156 70.847656 220.070312 69.273438 218.15625 69.734375 Z M 204.410156 71.011719 C 200.6875 69.085938 194.484375 69.640625 190.339844 68.132812 C 192.410156 71.511719 199.660156 71.375 204.410156 71.011719 Z M 241.496094 60.460938 C 237.769531 69.203125 233.5625 77.464844 228.066406 84.4375 C 225.484375 84.679688 223.757812 84.054688 221.355469 84.117188 C 217.910156 80.441406 212.367188 82.476562 206.964844 81.878906 C 205.472656 79.898438 202.125 81.605469 200.253906 80.28125 C 196.785156 82.265625 189.347656 81.710938 184.585938 81.878906 C 173.820312 82.261719 161.605469 82.0625 152.933594 84.117188 C 150.625 84.152344 147.046875 82.980469 145.261719 85.398438 C 141.332031 83.683594 138.871094 77.796875 134.070312 79.003906 C 133.152344 74.863281 134.316406 70.679688 136.628906 68.773438 C 145.339844 65.851562 155.128906 66.230469 166.683594 65.574219 C 174.03125 65.160156 181.449219 63.167969 188.101562 63.019531 C 189.46875 62.988281 190.886719 63.605469 192.257812 63.660156 C 200.902344 63.988281 209.429688 61.335938 216.878906 62.378906 C 217.886719 62.003906 218.652344 61.386719 219.4375 60.78125 C 225.65625 60.613281 234.925781 59.640625 241.496094 60.460938 " fill-opacity="1" fill-rule="evenodd"/><path fill="#c6ba87" d="M 243.097656 60.140625 C 245.125 60.367188 245.59375 60.273438 248.210938 60.460938 C 250.984375 68.394531 244.929688 74.824219 241.816406 79.960938 C 238.613281 80.378906 236.355469 81.746094 232.546875 81.558594 C 236.34375 74.703125 240.605469 68.304688 243.097656 60.140625 " fill-opacity="1" fill-rule="evenodd"/><path fill="#000000" d="M 190.34375 68.132812 C 194.484375 69.640625 200.6875 69.085938 204.410156 71.011719 C 199.660156 71.375 192.414062 71.511719 190.34375 68.132812 " fill-opacity="1" fill-rule="evenodd"/><path fill="#000000" d="M 222.632812 73.25 C 220.65625 72.722656 218.3125 71.03125 218.15625 69.730469 C 220.070312 69.273438 222.535156 70.847656 222.632812 73.25 " fill-opacity="1" fill-rule="evenodd"/><path fill="#000000" d="M 172.757812 72.609375 C 163.257812 73.605469 153.5 73.332031 145.898438 78.679688 C 144.511719 76.53125 147.832031 75.308594 149.097656 74.84375 C 154.019531 73.046875 158.449219 72.585938 164.765625 71.96875 C 167.496094 71.703125 170.707031 70.367188 172.757812 72.609375 " fill-opacity="1" fill-rule="evenodd"/><path fill="#d6cb9f" d="M 145.261719 196.003906 C 144.625 200.707031 146 206.191406 146.21875 211.988281 C 146.503906 219.402344 146.472656 226.597656 146.859375 232.128906 C 149.527344 223.351562 146.523438 205.160156 146.539062 195.367188 C 146.132812 195.347656 146.097656 194.957031 145.582031 195.046875 C 145.5625 195.457031 145.171875 195.488281 145.261719 196.003906 Z M 142.703125 175.226562 C 142.792969 177.367188 141.714844 180.214844 143.664062 181.300781 C 144.394531 174.453125 143.550781 169.496094 142.703125 163.398438 C 142.382812 163.398438 142.0625 163.398438 141.746094 163.398438 C 141.617188 166.640625 142.53125 171.226562 142.703125 175.226562 Z M 140.464844 136.546875 C 141.003906 132.1875 140.242188 125.179688 140.464844 119.921875 C 140.398438 119.5625 140.109375 119.425781 139.824219 119.28125 C 138.347656 123.367188 138.675781 133.152344 140.464844 136.546875 Z M 153.894531 259.941406 C 151.082031 257.457031 147.527344 255 143.34375 254.828125 C 142.058594 241.195312 138.289062 227.027344 137.90625 213.910156 C 137.734375 207.941406 138.355469 202.402344 137.90625 196.644531 C 137.503906 191.453125 137.15625 186.210938 136.628906 180.980469 C 135.542969 170.21875 136.195312 159.125 135.667969 148.691406 C 134.628906 128.089844 133.785156 109.019531 132.472656 87.3125 C 133.871094 85.941406 134.132812 83.433594 134.390625 80.921875 C 134.625 80.621094 134.972656 80.433594 135.347656 80.28125 C 138.910156 82.695312 143.078125 84.492188 144.621094 88.273438 C 146.960938 93.996094 144.558594 107.621094 144.621094 113.847656 C 144.742188 125.480469 146.257812 137.867188 147.179688 150.289062 C 148.050781 162.035156 149.71875 173.777344 150.695312 185.457031 C 152.234375 203.867188 152.375 222.15625 153.574219 239.484375 C 153.84375 243.382812 154.707031 246.9375 155.171875 250.671875 C 155.308594 251.761719 154.363281 254 156.132812 254.507812 C 155.207031 256.140625 153.8125 257.304688 153.894531 259.941406 " fill-opacity="1" fill-rule="evenodd"/><path fill="#c6ba87" d="M 221.035156 85.714844 C 223.070312 85.597656 224.304688 86.285156 226.472656 86.035156 C 226.238281 88.984375 227.191406 89.882812 226.789062 93.386719 C 225.566406 94.398438 224.410156 95.480469 222.316406 95.625 C 221.714844 92.492188 221.625 88.855469 221.035156 85.714844 " fill-opacity="1" fill-rule="evenodd"/><path fill="#c6ba87" d="M 147.5 86.035156 C 151.238281 88.734375 151.664062 98.78125 151.976562 105.855469 C 152.875 126.335938 153.746094 142.867188 155.492188 162.757812 C 156.644531 175.878906 156.28125 189.03125 157.089844 202.078125 C 157.796875 213.488281 157.792969 224.847656 159.007812 235.648438 C 159.78125 242.484375 160.90625 249.023438 161.246094 255.464844 C 159.566406 255.226562 159.378906 253.5 157.410156 253.550781 C 154.515625 242.050781 154.429688 230.300781 154.214844 218.703125 C 153.789062 195.699219 150.351562 173.277344 148.777344 150.929688 C 148.347656 144.851562 147.914062 138.832031 147.5 132.710938 C 146.476562 117.6875 146.578125 100.789062 146.859375 86.996094 C 146.972656 86.574219 147.425781 86.492188 147.5 86.035156 " fill-opacity="1" fill-rule="evenodd"/><path fill="#c6ba87" d="M 226.472656 95.945312 C 227.191406 97.933594 226.480469 99.132812 226.472656 100.421875 C 225.101562 100.753906 224.417969 101.777344 222.953125 102.019531 C 222.894531 100.097656 222.785156 99.992188 222.953125 98.183594 C 224.117188 97.429688 225.363281 96.757812 226.472656 95.945312 " fill-opacity="1" fill-rule="evenodd"/><path fill="#c6ba87" d="M 226.472656 102.65625 C 226.71875 104.164062 226.78125 106.660156 226.789062 107.453125 C 225.925781 108.082031 225.136719 108.785156 223.59375 108.734375 C 223.660156 106.402344 223.277344 105.609375 223.59375 103.617188 C 224.6875 103.433594 225.082031 102.546875 226.472656 102.65625 " fill-opacity="1" fill-rule="evenodd"/><path fill="#c6ba87" d="M 226.472656 109.691406 C 227.828125 111.75 228.019531 116.414062 224.230469 115.765625 C 224.230469 114.0625 224.230469 112.355469 224.230469 110.652344 C 224.785156 110.136719 226.210938 110.496094 226.472656 109.691406 " fill-opacity="1" fill-rule="evenodd"/><path fill="#c6ba87" d="M 227.75 122.160156 C 226.664062 122.070312 225.15625 122.40625 224.550781 121.839844 C 224.550781 120.453125 224.550781 119.070312 224.550781 117.683594 C 228.332031 114.964844 228.742188 119.789062 227.75 122.160156 " fill-opacity="1" fill-rule="evenodd"/><path fill="#000000" d="M 139.824219 119.28125 C 140.109375 119.425781 140.398438 119.5625 140.464844 119.921875 C 140.242188 125.179688 141.003906 132.1875 140.464844 136.546875 C 138.675781 133.152344 138.347656 123.367188 139.824219 119.28125 " fill-opacity="1" fill-rule="evenodd"/><path fill="#c6ba87" d="M 228.386719 123.4375 C 227.617188 125.007812 228.9375 128.675781 226.789062 128.871094 C 225 128.5 225.515625 125.332031 225.832031 123.757812 C 227.035156 124.003906 227.359375 123.367188 228.386719 123.4375 " fill-opacity="1" fill-rule="evenodd"/><path fill="#c6ba87" d="M 229.347656 129.832031 C 228.171875 132.039062 229.917969 132.71875 229.667969 135.585938 C 229.152344 135.496094 229.117188 135.886719 228.710938 135.90625 C 226.703125 135.566406 227.714844 132.207031 226.789062 130.789062 C 228.042969 130.875 227.980469 129.636719 229.347656 129.832031 " fill-opacity="1" fill-rule="evenodd"/><path fill="#c6ba87" d="M 228.386719 137.503906 C 228.363281 138.878906 229.394531 143.378906 226.789062 141.980469 C 227.296875 140.460938 227.988281 139.128906 228.386719 137.503906 " fill-opacity="1" fill-rule="evenodd"/><path fill="#c6ba87" d="M 233.824219 139.101562 C 233.523438 141.148438 231.785156 141.753906 231.265625 143.578125 C 230.617188 142.695312 232.183594 141.308594 231.585938 139.421875 C 232.59375 139.578125 232.714844 138.847656 233.824219 139.101562 " fill-opacity="1" fill-rule="evenodd"/><path fill="#c6ba87" d="M 228.710938 144.21875 C 227.707031 146.199219 225.898438 147.371094 225.191406 149.652344 C 224.363281 148.882812 224.144531 147.503906 224.230469 145.816406 C 225.457031 144.878906 226.613281 143.378906 228.710938 144.21875 " fill-opacity="1" fill-rule="evenodd"/><path fill="#c6ba87" d="M 222.316406 147.09375 C 221.414062 147.035156 220.953125 146.539062 221.035156 145.496094 C 222.511719 144.511719 222.839844 146.492188 222.316406 147.09375 " fill-opacity="1" fill-rule="evenodd"/><path fill="#c6ba87" d="M 229.347656 146.773438 C 229.71875 146.722656 229.917969 146.847656 229.988281 147.09375 C 238.183594 150.023438 244.535156 161.921875 244.054688 171.710938 C 243.980469 173.195312 243.695312 175.417969 243.097656 176.824219 C 239.589844 185.070312 225.695312 190.269531 218.796875 182.261719 C 211.5625 173.855469 216.824219 156.070312 223.273438 150.609375 C 222.394531 154.101562 220.660156 156.734375 218.796875 159.242188 C 215.472656 168.007812 217.304688 181.847656 226.472656 183.21875 C 230.03125 183.75 233.085938 181.691406 236.703125 180.980469 C 246.835938 171.707031 238.601562 152.851562 229.667969 147.734375 C 229.292969 147.683594 229.398438 147.152344 229.347656 146.773438 " fill-opacity="1" fill-rule="evenodd"/><path fill="#000000" d="M 141.746094 163.398438 C 142.0625 163.398438 142.382812 163.398438 142.703125 163.398438 C 143.550781 169.496094 144.394531 174.453125 143.664062 181.300781 C 141.714844 180.214844 142.792969 177.367188 142.703125 175.226562 C 142.53125 171.226562 141.617188 166.644531 141.746094 163.398438 " fill-opacity="1" fill-rule="evenodd"/><path fill="#000000" d="M 145.582031 195.046875 C 146.097656 194.957031 146.132812 195.347656 146.539062 195.367188 C 146.523438 205.160156 149.527344 223.351562 146.859375 232.132812 C 146.472656 226.597656 146.503906 219.402344 146.21875 211.988281 C 146 206.191406 144.625 200.710938 145.261719 196.003906 C 145.171875 195.488281 145.5625 195.457031 145.582031 195.046875 " fill-opacity="1" fill-rule="evenodd"/><path fill="#c6ba87" d="M 161.246094 257.386719 C 160.808594 257.792969 160.808594 258.894531 161.246094 259.300781 C 164.421875 262.09375 167.3125 265.175781 169.558594 268.894531 C 171.703125 269.3125 172.914062 270.652344 173.714844 272.410156 C 167.804688 268.941406 162.011719 262.589844 156.449219 257.707031 C 156.929688 254.289062 159.652344 256.125 161.246094 257.386719 " fill-opacity="1" fill-rule="evenodd"/><path fill="#d6cb9f" d="M 150.695312 259.621094 C 148.292969 266.488281 144.871094 272.335938 142.382812 279.125 C 139.402344 282.144531 133.667969 280.484375 130.234375 278.804688 C 133.554688 270.402344 139.300781 264.429688 143.34375 256.746094 C 147.277344 256.21875 148.535156 258.375 150.695312 259.621094 " fill-opacity="1" fill-rule="evenodd"/><path fill="#c6ba87" d="M 155.8125 259.941406 C 162.140625 264.699219 167.515625 270.402344 173.398438 275.605469 C 167.835938 279.121094 160.867188 274.746094 156.132812 273.371094 C 155.472656 268.550781 155.039062 265.039062 155.8125 259.941406 " fill-opacity="1" fill-rule="evenodd"/><path fill="#c6ba87" d="M 151.65625 261.222656 C 153.722656 262.777344 152.3125 267.808594 153.574219 270.171875 C 151.480469 273.410156 149.734375 276.992188 147.5 280.082031 C 145.644531 280.113281 145.824219 280.464844 143.664062 280.402344 C 146.074219 273.757812 149.324219 267.949219 151.65625 261.222656 " fill-opacity="1" fill-rule="evenodd"/><path fill="#c6ba87" d="M 174.996094 291.589844 C 175.6875 292.390625 177.320312 292.25 178.511719 292.550781 C 180.867188 293.289062 186.269531 296.707031 188.105469 293.832031 C 183.28125 293.390625 179.105469 289.703125 174.996094 291.589844 Z M 224.230469 288.074219 C 225.664062 291.386719 232.644531 292.378906 236.0625 291.589844 C 232.796875 289.730469 227.4375 289.378906 224.230469 288.074219 Z M 150.058594 284.878906 C 150.691406 285.992188 156.230469 289.222656 158.050781 287.117188 C 155.347656 286.585938 153.058594 284.050781 150.058594 284.878906 Z M 188.421875 285.195312 C 193.582031 287.386719 200.707031 286.0625 206.648438 287.753906 C 203.730469 283.996094 198.714844 285.5625 195.136719 285.195312 C 193.074219 284.988281 191.382812 284.007812 189.0625 283.921875 C 188.851562 283.921875 188.636719 283.921875 188.421875 283.921875 C 188.421875 284.34375 188.421875 284.769531 188.421875 285.195312 Z M 177.554688 270.171875 C 190.097656 272.132812 201.558594 275.453125 214.960938 276.886719 C 218.582031 277.273438 222.203125 278.351562 225.191406 278.484375 C 229.457031 278.675781 233.070312 278.519531 237.34375 279.125 C 248.789062 280.742188 259.589844 283.140625 270.914062 283.601562 C 270.035156 286.339844 266.882812 287.808594 264.515625 289.035156 C 262.019531 290.328125 259.335938 291.511719 256.84375 292.871094 C 252.0625 295.476562 246.71875 298.78125 241.496094 300.542969 C 237.792969 301.792969 232.75 302.070312 228.710938 302.460938 C 226.535156 302.667969 224.125 302.566406 221.996094 302.460938 C 208.339844 301.777344 194.035156 301.132812 179.789062 299.261719 C 166.164062 297.476562 152.394531 294.636719 138.226562 293.832031 C 125.90625 293.125 114.414062 294.015625 104.019531 291.269531 C 103.527344 290.164062 103.734375 288.355469 103.699219 286.796875 C 111.027344 283.789062 117.320312 279.746094 125.117188 277.207031 C 130.160156 282.640625 140.375 282.890625 147.5 282.320312 C 150.632812 280.234375 151.21875 275.597656 154.214844 273.371094 C 154.230469 274.449219 153.636719 274.734375 154.535156 275.285156 C 158.285156 274.566406 161.566406 278.515625 165.40625 279.125 C 169.921875 279.839844 173.882812 277.238281 178.191406 277.207031 C 179.617188 274.59375 178.6875 272.476562 177.554688 270.171875 " fill-opacity="1" fill-rule="evenodd"/><path fill="#000000" d="M 188.421875 283.921875 C 188.636719 283.921875 188.851562 283.921875 189.0625 283.921875 C 191.382812 284.007812 193.074219 284.988281 195.136719 285.195312 C 198.714844 285.5625 203.730469 283.996094 206.648438 287.753906 C 200.707031 286.0625 193.582031 287.386719 188.421875 285.195312 C 188.421875 284.769531 188.421875 284.34375 188.421875 283.921875 " fill-opacity="1" fill-rule="evenodd"/><path fill="#000000" d="M 158.050781 287.117188 C 156.230469 289.222656 150.691406 285.992188 150.058594 284.878906 C 153.058594 284.050781 155.347656 286.585938 158.050781 287.117188 " fill-opacity="1" fill-rule="evenodd"/><path fill="#d6cb9f" d="M 107.214844 303.417969 C 106.566406 300.019531 105.574219 296.960938 104.976562 293.511719 C 114.515625 294.953125 124.207031 294.910156 134.390625 295.109375 C 153.609375 295.480469 173.195312 300.492188 191.941406 302.140625 C 197.167969 302.601562 202.3125 302.632812 207.605469 302.78125 C 218.960938 303.097656 230.035156 304.714844 239.898438 302.78125 C 244.726562 301.832031 250.148438 298.132812 254.925781 295.425781 C 260.425781 292.3125 266.265625 289.984375 270.59375 286.796875 C 271.1875 289.546875 271.796875 294.535156 270.914062 297.027344 C 269.351562 301.425781 259.3125 304.332031 254.925781 306.296875 C 251.035156 308.039062 246.332031 310.929688 241.496094 313.011719 C 239.582031 313.832031 237.011719 314.949219 234.785156 316.207031 C 232.574219 317.453125 230.242188 319.804688 228.710938 320.042969 C 225.039062 320.613281 214.710938 317.375 210.804688 316.523438 C 193.542969 312.777344 174.238281 312.15625 156.132812 309.8125 C 146.886719 308.617188 137.421875 307.09375 128.316406 306.296875 C 120.941406 305.652344 113.707031 305.804688 107.214844 303.417969 " fill-opacity="1" fill-rule="evenodd"/><path fill="#000000" d="M 236.0625 291.589844 C 232.644531 292.378906 225.664062 291.386719 224.230469 288.074219 C 227.4375 289.378906 232.796875 289.730469 236.0625 291.589844 " fill-opacity="1" fill-rule="evenodd"/><path fill="#000000" d="M 188.105469 293.832031 C 186.269531 296.707031 180.867188 293.289062 178.511719 292.550781 C 177.320312 292.25 175.6875 292.390625 174.996094 291.589844 C 179.105469 289.703125 183.28125 293.390625 188.105469 293.832031 " fill-opacity="1" fill-rule="evenodd"/><g clip-path="url(#id1)"><path fill="#000000" d="M 128.316406 306.296875 C 137.421875 307.09375 146.886719 308.617188 156.128906 309.8125 C 174.238281 312.15625 193.542969 312.777344 210.804688 316.527344 C 214.710938 317.375 225.039062 320.613281 228.710938 320.042969 C 230.242188 319.804688 232.574219 317.453125 234.785156 316.207031 C 237.011719 314.949219 239.582031 313.832031 241.496094 313.011719 C 246.332031 310.929688 251.035156 308.039062 254.925781 306.296875 C 259.3125 304.332031 269.351562 301.425781 270.914062 297.027344 C 271.796875 294.535156 271.1875 289.546875 270.589844 286.796875 C 266.265625 289.988281 260.425781 292.3125 254.925781 295.425781 C 250.148438 298.132812 244.726562 301.832031 239.898438 302.78125 C 230.035156 304.714844 218.960938 303.097656 207.605469 302.78125 C 202.3125 302.632812 197.167969 302.601562 191.941406 302.140625 C 173.195312 300.492188 153.609375 295.480469 134.390625 295.109375 C 124.207031 294.910156 114.515625 294.953125 104.976562 293.511719 C 105.574219 296.960938 106.566406 300.019531 107.214844 303.417969 C 113.707031 305.804688 120.941406 305.652344 128.316406 306.296875 Z M 178.191406 277.207031 C 173.882812 277.238281 169.921875 279.839844 165.40625 279.125 C 161.566406 278.515625 158.285156 274.566406 154.535156 275.285156 C 153.636719 274.734375 154.230469 274.449219 154.214844 273.371094 C 151.21875 275.597656 150.632812 280.234375 147.5 282.320312 C 140.375 282.890625 130.160156 282.644531 125.117188 277.207031 C 117.320312 279.746094 111.027344 283.789062 103.699219 286.796875 C 103.734375 288.355469 103.527344 290.164062 104.019531 291.269531 C 114.414062 294.015625 125.90625 293.125 138.226562 293.832031 C 152.394531 294.636719 166.164062 297.476562 179.789062 299.261719 C 194.035156 301.132812 208.339844 301.777344 221.996094 302.460938 C 224.125 302.566406 226.535156 302.667969 228.710938 302.460938 C 232.75 302.070312 237.792969 301.792969 241.496094 300.542969 C 246.71875 298.78125 252.0625 295.476562 256.84375 292.871094 C 259.335938 291.511719 262.019531 290.328125 264.515625 289.035156 C 266.878906 287.808594 270.035156 286.339844 270.914062 283.601562 C 259.589844 283.140625 248.789062 280.742188 237.34375 279.125 C 233.070312 278.519531 229.457031 278.675781 225.191406 278.484375 C 222.203125 278.351562 218.582031 277.273438 214.960938 276.886719 C 201.558594 275.453125 190.097656 272.132812 177.550781 270.171875 C 178.6875 272.476562 179.617188 274.59375 178.191406 277.207031 Z M 143.664062 280.402344 C 145.824219 280.464844 145.644531 280.113281 147.5 280.082031 C 149.734375 276.992188 151.480469 273.410156 153.574219 270.171875 C 152.3125 267.808594 153.722656 262.777344 151.65625 261.222656 C 149.324219 267.949219 146.074219 273.757812 143.664062 280.402344 Z M 156.128906 273.371094 C 160.867188 274.75 167.835938 279.121094 173.398438 275.605469 C 167.515625 270.402344 162.140625 264.699219 155.8125 259.941406 C 155.039062 265.039062 155.472656 268.550781 156.128906 273.371094 Z M 143.34375 256.746094 C 139.300781 264.429688 133.554688 270.402344 130.234375 278.804688 C 133.667969 280.484375 139.402344 282.144531 142.382812 279.125 C 144.871094 272.335938 148.292969 266.488281 150.695312 259.621094 C 148.535156 258.375 147.277344 256.21875 143.34375 256.746094 Z M 156.449219 257.707031 C 162.011719 262.589844 167.804688 268.941406 173.714844 272.410156 C 172.914062 270.652344 171.699219 269.3125 169.558594 268.894531 C 167.3125 265.175781 164.421875 262.097656 161.246094 259.300781 C 160.808594 258.894531 160.808594 257.792969 161.246094 257.386719 C 159.652344 256.125 156.929688 254.289062 156.449219 257.707031 Z M 221.355469 167.875 C 221.191406 174.289062 224.945312 181.347656 231.585938 178.742188 C 235.652344 177.148438 237.566406 171.039062 236.703125 165.316406 C 235.933594 160.214844 230.664062 153.167969 227.75 151.570312 C 225.796875 155.980469 221.527344 161.144531 221.355469 167.875 Z M 229.667969 147.734375 C 238.601562 152.851562 246.835938 171.707031 236.703125 180.980469 C 233.085938 181.691406 230.03125 183.75 226.472656 183.21875 C 217.304688 181.847656 215.472656 168.011719 218.796875 159.242188 C 220.660156 156.734375 222.394531 154.101562 223.273438 150.609375 C 216.824219 156.070312 211.5625 173.855469 218.796875 182.261719 C 225.695312 190.269531 239.589844 185.070312 243.097656 176.824219 C 243.695312 175.417969 243.980469 173.195312 244.054688 171.710938 C 244.535156 161.921875 238.183594 150.023438 229.988281 147.09375 C 229.917969 146.84375 229.71875 146.722656 229.347656 146.773438 C 229.398438 147.152344 229.292969 147.683594 229.667969 147.734375 Z M 221.035156 145.496094 C 220.953125 146.539062 221.414062 147.035156 222.316406 147.09375 C 222.839844 146.492188 222.511719 144.515625 221.035156 145.496094 Z M 224.230469 145.816406 C 224.144531 147.503906 224.363281 148.882812 225.191406 149.652344 C 225.898438 147.371094 227.707031 146.199219 228.710938 144.21875 C 226.613281 143.378906 225.457031 144.878906 224.230469 145.816406 Z M 231.585938 139.421875 C 232.183594 141.308594 230.617188 142.699219 231.265625 143.578125 C 231.785156 141.753906 233.523438 141.144531 233.824219 139.101562 C 232.714844 138.847656 232.59375 139.578125 231.585938 139.421875 Z M 226.789062 141.980469 C 229.394531 143.378906 228.363281 138.878906 228.386719 137.503906 C 227.988281 139.128906 227.296875 140.460938 226.789062 141.980469 Z M 226.789062 130.789062 C 227.714844 132.210938 226.703125 135.566406 228.710938 135.90625 C 229.117188 135.886719 229.152344 135.496094 229.667969 135.585938 C 229.917969 132.71875 228.171875 132.039062 229.347656 129.832031 C 227.980469 129.636719 228.042969 130.875 226.789062 130.789062 Z M 225.832031 123.757812 C 225.515625 125.332031 225 128.5 226.789062 128.871094 C 228.9375 128.675781 227.617188 125.007812 228.386719 123.4375 C 227.359375 123.367188 227.035156 124.003906 225.832031 123.757812 Z M 224.550781 117.683594 C 224.550781 119.070312 224.550781 120.453125 224.550781 121.839844 C 225.15625 122.40625 226.664062 122.070312 227.75 122.160156 C 228.742188 119.785156 228.332031 114.964844 224.550781 117.683594 Z M 224.230469 110.652344 C 224.230469 112.355469 224.230469 114.0625 224.230469 115.765625 C 228.019531 116.414062 227.828125 111.75 226.472656 109.691406 C 226.210938 110.496094 224.785156 110.136719 224.230469 110.652344 Z M 223.59375 103.617188 C 223.277344 105.609375 223.660156 106.402344 223.59375 108.734375 C 225.136719 108.785156 225.925781 108.082031 226.789062 107.453125 C 226.78125 106.660156 226.71875 104.164062 226.472656 102.660156 C 225.082031 102.546875 224.6875 103.433594 223.59375 103.617188 Z M 222.953125 98.183594 C 222.785156 99.996094 222.894531 100.097656 222.953125 102.019531 C 224.417969 101.777344 225.101562 100.753906 226.472656 100.421875 C 226.480469 99.132812 227.191406 97.933594 226.472656 95.945312 C 225.363281 96.757812 224.117188 97.429688 222.953125 98.183594 Z M 146.859375 86.996094 C 146.578125 100.789062 146.476562 117.6875 147.5 132.710938 C 147.914062 138.832031 148.347656 144.851562 148.777344 150.929688 C 150.351562 173.273438 153.789062 195.699219 154.214844 218.703125 C 154.429688 230.300781 154.515625 242.050781 157.410156 253.550781 C 159.378906 253.5 159.566406 255.226562 161.246094 255.464844 C 160.90625 249.023438 159.78125 242.484375 159.007812 235.648438 C 157.792969 224.847656 157.796875 213.488281 157.089844 202.078125 C 156.28125 189.03125 156.644531 175.878906 155.492188 162.757812 C 153.746094 142.867188 152.875 126.335938 151.976562 105.855469 C 151.664062 98.78125 151.238281 88.734375 147.5 86.035156 C 147.425781 86.492188 146.972656 86.574219 146.859375 86.996094 Z M 222.316406 95.625 C 224.410156 95.484375 225.566406 94.402344 226.789062 93.386719 C 227.191406 89.882812 226.238281 88.984375 226.472656 86.035156 C 224.304688 86.285156 223.070312 85.597656 221.035156 85.71875 C 221.625 88.855469 221.714844 92.492188 222.316406 95.625 Z M 156.128906 254.507812 C 154.363281 254 155.308594 251.761719 155.171875 250.671875 C 154.707031 246.9375 153.84375 243.382812 153.574219 239.484375 C 152.375 222.15625 152.234375 203.867188 150.695312 185.457031 C 149.71875 173.777344 148.050781 162.035156 147.179688 150.292969 C 146.257812 137.867188 144.742188 125.484375 144.621094 113.847656 C 144.558594 107.621094 146.960938 93.996094 144.621094 88.273438 C 143.078125 84.492188 138.910156 82.695312 135.347656 80.28125 C 134.972656 80.4375 134.625 80.621094 134.390625 80.921875 C 134.132812 83.433594 133.871094 85.941406 132.472656 87.3125 C 133.785156 109.019531 134.628906 128.089844 135.667969 148.691406 C 136.195312 159.125 135.542969 170.21875 136.628906 180.980469 C 137.15625 186.210938 137.503906 191.453125 137.90625 196.644531 C 138.355469 202.402344 137.734375 207.941406 137.90625 213.910156 C 138.289062 227.027344 142.058594 241.195312 143.34375 254.828125 C 147.527344 255 151.082031 257.457031 153.894531 259.941406 C 153.8125 257.304688 155.207031 256.140625 156.128906 254.507812 Z M 232.546875 81.558594 C 236.355469 81.746094 238.613281 80.378906 241.816406 79.960938 C 244.929688 74.824219 250.984375 68.390625 248.210938 60.460938 C 245.59375 60.273438 245.125 60.371094 243.097656 60.140625 C 240.605469 68.304688 236.34375 74.703125 232.546875 81.558594 Z M 219.4375 60.78125 C 218.65625 61.386719 217.886719 62.003906 216.878906 62.378906 C 209.429688 61.332031 200.902344 63.988281 192.261719 63.65625 C 190.886719 63.605469 189.46875 62.988281 188.105469 63.019531 C 181.449219 63.164062 174.03125 65.160156 166.683594 65.574219 C 155.128906 66.230469 145.339844 65.851562 136.628906 68.773438 C 134.316406 70.679688 133.152344 74.863281 134.070312 79.003906 C 138.871094 77.796875 141.332031 83.683594 145.261719 85.394531 C 147.046875 82.980469 150.625 84.152344 152.933594 84.117188 C 161.605469 82.0625 173.820312 82.261719 184.585938 81.878906 C 189.347656 81.710938 196.785156 82.265625 200.253906 80.28125 C 202.125 81.605469 205.472656 79.894531 206.96875 81.878906 C 212.367188 82.476562 217.910156 80.441406 221.355469 84.117188 C 223.761719 84.054688 225.484375 84.675781 228.070312 84.4375 C 233.5625 77.460938 237.769531 69.203125 241.496094 60.460938 C 234.925781 59.640625 225.65625 60.609375 219.4375 60.78125 Z M 219.4375 58.863281 C 220.609375 58.863281 221.78125 58.863281 222.953125 58.863281 C 222.773438 57.523438 219.816406 58.335938 219.4375 58.863281 Z M 227.75 56.304688 C 227.527344 57.503906 230.167969 57.085938 229.667969 55.984375 C 228.878906 55.945312 228.128906 55.9375 227.75 56.304688 Z M 233.183594 50.871094 C 234.550781 51.742188 235.085938 53.445312 235.421875 55.347656 C 241.304688 56.117188 247.128906 55.957031 251.726562 56.304688 C 253.023438 57.992188 253.121094 60.882812 253.96875 63.019531 C 252.984375 66.769531 251.480469 73.59375 248.851562 78.683594 C 247.953125 80.421875 245.996094 83.132812 244.695312 83.796875 C 240.902344 85.734375 233.71875 84.671875 231.265625 87.3125 C 229.75 88.949219 230.300781 93.210938 230.625 96.902344 C 231.742188 109.519531 231.921875 122.285156 234.464844 134.308594 C 237.292969 135.3125 239.128906 137.316406 240.21875 140.0625 C 239.492188 142.53125 237.410156 143.644531 235.421875 144.855469 C 250.246094 153.972656 253.503906 182.144531 235.742188 189.292969 C 234.414062 189.828125 232.507812 189.777344 230.945312 190.25 C 229.355469 190.738281 228.191406 191.800781 227.109375 191.851562 C 222.28125 192.070312 215.78125 186.816406 214 183.859375 C 208.058594 173.964844 211.871094 157.191406 217.839844 150.292969 C 216.246094 147.976562 216.941406 143.824219 218.15625 141.660156 C 219.386719 140.640625 222.132812 141.339844 223.273438 141.019531 C 224.691406 134.875 220.886719 130.46875 220.394531 124.078125 C 219.4375 111.65625 218.410156 99.597656 216.558594 86.675781 C 196.730469 84.582031 178.507812 86.773438 156.128906 86.996094 C 155.039062 103.136719 157.003906 124.039062 158.050781 140.699219 C 158.683594 150.789062 160.332031 161.605469 160.605469 173.308594 C 160.792969 181.234375 159.957031 188.84375 160.605469 197.925781 C 161.539062 210.902344 161.890625 223.898438 163.484375 236.605469 C 164.261719 242.78125 164.878906 250.457031 166.363281 257.386719 C 172.042969 269.90625 191.808594 265.539062 204.730469 271.132812 C 213.441406 271.550781 222.601562 272.363281 231.585938 273.371094 C 233.796875 273.617188 235.753906 274.5625 237.980469 274.96875 C 239.546875 275.253906 241.199219 274.777344 242.777344 274.96875 C 247.242188 275.511719 251.898438 276.613281 256.523438 277.207031 C 263.046875 278.042969 269.488281 277.191406 275.066406 280.082031 C 275.109375 288.03125 277.726562 297.484375 272.191406 302.140625 C 270.253906 303.773438 266.296875 305.242188 262.917969 306.9375 C 259.6875 308.554688 256.667969 310.84375 253.96875 312.050781 C 249.390625 314.097656 244.613281 315.578125 240.539062 317.804688 C 236.421875 320.054688 231.152344 324.378906 226.472656 324.519531 C 222.621094 324.632812 217.710938 322.964844 213.683594 321.960938 C 199.976562 318.546875 183.722656 316.742188 167.960938 314.929688 C 148.664062 312.707031 126.054688 312.332031 104.976562 307.253906 C 104.730469 306.222656 104.09375 305.582031 103.058594 305.339844 C 102.855469 298.0625 98.945312 292.851562 99.539062 285.835938 C 107.796875 279.707031 118.644531 276.164062 128.957031 272.089844 C 130.589844 269.988281 131.769531 267.460938 133.433594 264.738281 C 136.246094 260.128906 138.136719 257.539062 138.226562 250.351562 C 138.28125 246.332031 137.355469 241.183594 136.628906 236.605469 C 134.214844 221.421875 133.75 207.457031 133.113281 190.570312 C 132.800781 182.371094 132.023438 174.117188 131.832031 165.957031 C 131.273438 141.996094 131.1875 117.980469 127.996094 96.265625 C 127.273438 91.359375 126.984375 86.144531 129.914062 83.15625 C 128.222656 74.460938 129.832031 68.492188 134.390625 64.296875 C 141.386719 62.097656 149.035156 61.71875 157.089844 61.097656 C 161.289062 60.78125 165.339844 59.617188 169.558594 59.183594 C 184.117188 57.691406 199.449219 59.421875 214.640625 57.265625 C 215.246094 52.671875 218.6875 54.492188 223.273438 53.746094 C 225.929688 53.316406 228.558594 50.160156 233.183594 50.871094 " fill-opacity="1" fill-rule="evenodd"/></g></svg>