<svg xmlns="http://www.w3.org/2000/svg" xmlns:xlink="http://www.w3.org/1999/xlink" width="500" zoomAndPan="magnify" viewBox="0 0 375 374.999991" height="500" preserveAspectRatio="xMidYMid meet" version="1.0"><defs><clipPath id="id1"><path d="M 37 112.117188 L 127 112.117188 L 127 214 L 37 214 Z M 37 112.117188 " clip-rule="nonzero"/></clipPath><clipPath id="id2"><path d="M 252.445312 112.117188 L 341.972656 112.117188 L 341.972656 214 L 252.445312 214 Z M 252.445312 112.117188 " clip-rule="nonzero"/></clipPath><clipPath id="id3"><path d="M 101.210938 129.628906 L 278.105469 129.628906 L 278.105469 262.863281 L 101.210938 262.863281 Z M 101.210938 129.628906 " clip-rule="nonzero"/></clipPath><clipPath id="id4"><path d="M 252.054688 112.117188 L 341.972656 112.117188 L 341.972656 214 L 252.054688 214 Z M 252.054688 112.117188 " clip-rule="nonzero"/></clipPath><clipPath id="id5"><path d="M 37 112.117188 L 128 112.117188 L 128 214 L 37 214 Z M 37 112.117188 " clip-rule="nonzero"/></clipPath></defs><g clip-path="url(#id1)"><path fill="#ff3939" d="M 124.175781 127.003906 C 125.046875 127.875 125.886719 128.773438 126.683594 129.699219 L 121.035156 129.699219 C 120.566406 129.699219 120.09375 129.714844 119.625 129.75 C 119.105469 129.785156 118.585938 129.84375 118.074219 129.917969 C 113.40625 130.625 109.128906 132.992188 106.023438 136.640625 C 102.277344 141.054688 100.664062 146.871094 101.597656 152.585938 L 108.277344 193.449219 L 108.421875 194.339844 L 109.132812 198.691406 L 109.34375 199.960938 L 109.875 203.214844 L 110.746094 208.558594 C 109.164062 209.34375 107.539062 210.042969 105.882812 210.65625 C 100.324219 212.707031 94.378906 213.78125 88.273438 213.78125 C 79.296875 213.78125 70.5 211.414062 62.785156 206.921875 L 43.535156 207.722656 L 44.335938 188.460938 C 32.757812 168.535156 36.007812 143.371094 52.359375 127.003906 C 61.953125 117.40625 74.703125 112.117188 88.269531 112.117188 C 100.628906 112.117188 112.320312 116.507812 121.554688 124.558594 C 122.453125 125.335938 123.324219 126.152344 124.175781 127.003906 " fill-opacity="1" fill-rule="nonzero"/></g><g clip-path="url(#id2)"><path fill="#ff3939" d="M 335.089844 188.460938 L 335.890625 207.722656 L 316.640625 206.921875 C 308.925781 211.414062 300.125 213.78125 291.148438 213.78125 C 285.042969 213.78125 279.101562 212.707031 273.539062 210.65625 C 271.882812 210.042969 270.261719 209.34375 268.675781 208.558594 L 269.550781 203.214844 L 270.082031 199.960938 L 270.289062 198.691406 L 271 194.339844 L 271.148438 193.449219 L 277.828125 152.585938 C 278.757812 146.871094 277.144531 141.058594 273.398438 136.640625 C 270.296875 132.992188 266.015625 130.625 261.351562 129.917969 C 260.835938 129.84375 260.320312 129.785156 259.796875 129.75 C 259.332031 129.714844 258.859375 129.699219 258.390625 129.699219 L 252.742188 129.699219 C 253.539062 128.773438 254.375 127.875 255.246094 127.003906 C 256.097656 126.152344 256.972656 125.335938 257.871094 124.558594 C 267.105469 116.507812 278.792969 112.117188 291.15625 112.117188 C 304.71875 112.117188 317.472656 117.40625 327.066406 127.003906 C 343.417969 143.371094 346.664062 168.535156 335.089844 188.460938 " fill-opacity="1" fill-rule="nonzero"/></g><g clip-path="url(#id3)"><path fill="#00ce7f" d="M 277.828125 152.585938 L 271.148438 193.449219 L 271 194.339844 L 270.289062 198.691406 L 270.082031 199.960938 L 269.550781 203.214844 L 268.675781 208.558594 L 266.304688 223.074219 C 264.738281 232.652344 256.566406 239.601562 246.867188 239.601562 L 209.441406 239.601562 L 189.710938 262.863281 L 169.984375 239.601562 L 132.554688 239.601562 C 122.859375 239.601562 114.6875 232.652344 113.117188 223.074219 L 110.746094 208.558594 L 109.875 203.214844 L 109.34375 199.960938 L 109.132812 198.691406 L 108.421875 194.339844 L 108.277344 193.449219 L 101.597656 152.585938 C 100.664062 146.871094 102.277344 141.054688 106.023438 136.640625 C 109.128906 132.992188 113.40625 130.625 118.074219 129.917969 C 118.585938 129.84375 119.105469 129.785156 119.625 129.75 C 120.09375 129.714844 120.566406 129.699219 121.035156 129.699219 L 258.390625 129.699219 C 258.859375 129.699219 259.332031 129.714844 259.796875 129.75 C 260.320312 129.785156 260.835938 129.84375 261.351562 129.917969 C 266.015625 130.625 270.296875 132.992188 273.398438 136.640625 C 277.144531 141.058594 278.757812 146.871094 277.828125 152.585938 " fill-opacity="1" fill-rule="nonzero"/><path fill="#2b2b2b" d="M 272.757812 151.761719 L 266.425781 190.523438 L 265.867188 193.914062 L 265.441406 196.523438 L 265.011719 199.148438 L 261.238281 222.242188 C 260.078125 229.324219 254.035156 234.460938 246.867188 234.460938 L 207.058594 234.460938 L 189.710938 254.914062 L 172.363281 234.460938 L 132.554688 234.460938 C 125.390625 234.460938 119.347656 229.324219 118.1875 222.242188 L 114.414062 199.148438 L 113.984375 196.523438 L 113.554688 193.914062 L 113 190.523438 L 106.667969 151.761719 C 105.976562 147.535156 107.167969 143.234375 109.941406 139.972656 C 112.710938 136.707031 116.753906 134.84375 121.035156 134.84375 L 258.390625 134.84375 C 262.671875 134.84375 266.710938 136.707031 269.484375 139.972656 C 272.257812 143.234375 273.445312 147.535156 272.757812 151.761719 Z M 273.398438 136.640625 C 270.296875 132.992188 266.015625 130.625 261.351562 129.917969 C 260.835938 129.84375 260.320312 129.785156 259.796875 129.75 C 259.332031 129.714844 258.859375 129.699219 258.390625 129.699219 L 121.035156 129.699219 C 120.566406 129.699219 120.09375 129.714844 119.625 129.75 C 119.105469 129.785156 118.585938 129.84375 118.074219 129.917969 C 113.40625 130.625 109.128906 132.992188 106.023438 136.640625 C 102.277344 141.054688 100.664062 146.871094 101.597656 152.585938 L 108.277344 193.449219 L 108.421875 194.339844 L 109.132812 198.691406 L 109.34375 199.960938 L 109.875 203.214844 L 110.746094 208.558594 L 113.117188 223.074219 C 114.6875 232.652344 122.859375 239.601562 132.554688 239.601562 L 169.984375 239.601562 L 189.710938 262.863281 L 209.441406 239.601562 L 246.867188 239.601562 C 256.566406 239.601562 264.738281 232.652344 266.304688 223.074219 L 268.675781 208.558594 L 269.550781 203.214844 L 270.082031 199.960938 L 270.289062 198.691406 L 271 194.339844 L 271.148438 193.449219 L 277.828125 152.585938 C 278.757812 146.871094 277.144531 141.058594 273.398438 136.640625 " fill-opacity="1" fill-rule="nonzero"/></g><path fill="#ffffff" d="M 297.246094 145.042969 L 291.914062 145.042969 C 287.4375 145.042969 285.050781 147.429688 285.050781 151.910156 L 285.050781 156.964844 C 285.050781 157.441406 285.292969 157.730469 285.816406 157.730469 L 290.769531 157.730469 C 291.25 157.730469 291.53125 157.441406 291.53125 156.964844 L 291.53125 153.246094 C 291.53125 152.007812 292.152344 151.339844 293.433594 151.339844 L 295.722656 151.339844 C 296.910156 151.339844 297.628906 152.007812 297.628906 153.246094 L 297.628906 159.824219 L 291.148438 166.261719 C 290.816406 166.59375 290.675781 166.929688 290.675781 167.40625 L 290.675781 171.601562 C 290.675781 172.222656 291.007812 172.550781 291.625 172.550781 L 296.105469 172.550781 C 296.722656 172.550781 297.058594 172.222656 297.058594 171.601562 L 297.058594 169.5 C 297.058594 168.976562 297.199219 168.644531 297.53125 168.308594 L 303.582031 162.492188 C 303.960938 162.160156 304.105469 161.824219 304.105469 161.304688 L 304.105469 151.910156 C 304.105469 147.429688 301.675781 145.042969 297.246094 145.042969 Z M 296.105469 176.894531 L 291.625 176.894531 C 291.007812 176.894531 290.675781 177.226562 290.675781 177.84375 L 290.675781 182.230469 C 290.675781 182.847656 291.007812 183.183594 291.625 183.183594 L 296.105469 183.183594 C 296.722656 183.183594 297.058594 182.847656 297.058594 182.230469 L 297.058594 177.84375 C 297.058594 177.226562 296.722656 176.894531 296.105469 176.894531 " fill-opacity="1" fill-rule="nonzero"/><g clip-path="url(#id4)"><path fill="#2b2b2b" d="M 327.066406 127.003906 C 317.472656 117.40625 304.71875 112.117188 291.15625 112.117188 C 277.589844 112.117188 264.835938 117.40625 255.246094 127.003906 C 254.375 127.875 253.539062 128.773438 252.742188 129.699219 C 252.613281 129.839844 252.492188 129.988281 252.367188 130.132812 C 253.382812 130.160156 254.40625 130.25 255.425781 130.402344 C 256.453125 130.558594 257.46875 130.777344 258.460938 131.066406 C 258.597656 130.921875 258.738281 130.777344 258.875 130.640625 C 259.179688 130.339844 259.484375 130.042969 259.796875 129.75 C 268.304688 121.683594 279.390625 117.261719 291.15625 117.261719 C 303.347656 117.261719 314.8125 122.011719 323.429688 130.640625 C 338.296875 145.515625 341.113281 168.480469 330.292969 186.476562 L 329.894531 187.148438 L 330.523438 202.359375 L 315.324219 201.722656 L 314.660156 202.125 C 307.589844 206.382812 299.460938 208.636719 291.148438 208.636719 C 283.488281 208.636719 276.113281 206.761719 269.550781 203.214844 C 269.375 203.121094 269.199219 203.027344 269.023438 202.929688 L 268.671875 205.09375 L 268.460938 206.363281 L 268.144531 208.292969 C 268.320312 208.382812 268.496094 208.472656 268.675781 208.558594 C 275.578125 211.976562 283.226562 213.78125 291.148438 213.78125 C 300.125 213.78125 308.925781 211.414062 316.640625 206.921875 L 335.890625 207.722656 L 335.089844 188.460938 C 346.664062 168.535156 343.417969 143.371094 327.066406 127.003906 " fill-opacity="1" fill-rule="nonzero"/></g><path fill="#ffffff" d="M 87.511719 145.042969 L 82.175781 145.042969 C 77.699219 145.042969 75.320312 147.429688 75.320312 151.910156 L 75.320312 156.964844 C 75.320312 157.441406 75.554688 157.730469 76.082031 157.730469 L 81.035156 157.730469 C 81.507812 157.730469 81.796875 157.441406 81.796875 156.964844 L 81.796875 153.246094 C 81.796875 152.007812 82.414062 151.339844 83.703125 151.339844 L 85.988281 151.339844 C 87.179688 151.339844 87.894531 152.007812 87.894531 153.246094 L 87.894531 159.824219 L 81.417969 166.261719 C 81.082031 166.59375 80.941406 166.929688 80.941406 167.40625 L 80.941406 171.601562 C 80.941406 172.222656 81.269531 172.550781 81.890625 172.550781 L 86.367188 172.550781 C 86.984375 172.550781 87.320312 172.222656 87.320312 171.601562 L 87.320312 169.5 C 87.320312 168.976562 87.464844 168.644531 87.792969 168.308594 L 93.84375 162.492188 C 94.226562 162.160156 94.371094 161.824219 94.371094 161.304688 L 94.371094 151.910156 C 94.371094 147.429688 91.9375 145.042969 87.511719 145.042969 Z M 86.367188 176.894531 L 81.890625 176.894531 C 81.269531 176.894531 80.941406 177.226562 80.941406 177.84375 L 80.941406 182.230469 C 80.941406 182.847656 81.269531 183.183594 81.890625 183.183594 L 86.367188 183.183594 C 86.984375 183.183594 87.320312 182.847656 87.320312 182.230469 L 87.320312 177.84375 C 87.320312 177.226562 86.984375 176.894531 86.367188 176.894531 " fill-opacity="1" fill-rule="nonzero"/><g clip-path="url(#id5)"><path fill="#2b2b2b" d="M 126.683594 129.699219 C 125.886719 128.773438 125.046875 127.875 124.175781 127.003906 C 114.585938 117.40625 101.832031 112.117188 88.269531 112.117188 C 74.703125 112.117188 61.953125 117.40625 52.359375 127.003906 C 36.007812 143.371094 32.757812 168.535156 44.335938 188.460938 L 43.535156 207.722656 L 62.785156 206.921875 C 70.5 211.414062 79.296875 213.78125 88.273438 213.78125 C 96.199219 213.78125 103.847656 211.976562 110.746094 208.558594 C 110.925781 208.472656 111.101562 208.382812 111.277344 208.292969 L 110.960938 206.363281 L 110.75 205.09375 L 110.398438 202.929688 C 110.222656 203.027344 110.050781 203.121094 109.875 203.214844 C 103.3125 206.761719 95.933594 208.636719 88.273438 208.636719 C 79.964844 208.636719 71.832031 206.382812 64.761719 202.125 L 64.097656 201.722656 L 48.898438 202.359375 L 49.527344 187.148438 L 49.132812 186.476562 C 38.3125 168.480469 41.128906 145.515625 55.992188 130.640625 C 64.609375 122.011719 76.078125 117.261719 88.269531 117.261719 C 100.035156 117.261719 111.121094 121.683594 119.625 129.75 C 119.9375 130.042969 120.242188 130.339844 120.546875 130.640625 C 120.683594 130.777344 120.824219 130.921875 120.960938 131.066406 C 121.957031 130.777344 122.96875 130.558594 123.996094 130.402344 C 125.015625 130.25 126.039062 130.160156 127.054688 130.132812 C 126.929688 129.988281 126.8125 129.839844 126.683594 129.699219 " fill-opacity="1" fill-rule="nonzero"/></g><path fill="#ffffff" d="M 156.273438 193.964844 C 156.273438 195.460938 155.5 196.179688 154.058594 196.179688 L 150.511719 196.179688 C 149.070312 196.179688 148.292969 195.460938 148.292969 193.964844 L 148.292969 173.882812 C 148.292969 172.445312 149.070312 171.667969 150.511719 171.667969 L 154.058594 171.667969 C 155.5 171.667969 156.273438 172.445312 156.273438 173.882812 Z M 163.257812 195.347656 L 163.257812 172.5 C 163.257812 167.285156 160.488281 164.511719 155.277344 164.511719 L 149.070312 164.511719 C 143.863281 164.511719 141.09375 167.285156 141.09375 172.5 L 141.09375 195.347656 C 141.09375 200.566406 143.863281 203.335938 149.070312 203.335938 L 152.507812 203.335938 L 154.390625 207.441406 C 154.613281 207.882812 154.78125 208.21875 155.332031 208.21875 L 161.09375 208.21875 C 161.703125 208.21875 162.148438 207.828125 161.871094 207.21875 L 159.652344 202.449219 C 162.039062 201.230469 163.257812 198.84375 163.257812 195.347656 " fill-opacity="1" fill-rule="nonzero"/><path fill="#ffffff" d="M 191.515625 164.511719 L 186.417969 164.511719 C 185.808594 164.511719 185.308594 165.015625 185.308594 165.621094 L 185.308594 193.796875 C 185.308594 195.292969 184.535156 196.011719 183.09375 196.011719 L 180.210938 196.011719 C 178.773438 196.011719 177.992188 195.292969 177.992188 193.796875 L 177.992188 165.621094 C 177.992188 165.015625 177.496094 164.511719 176.890625 164.511719 L 171.566406 164.511719 C 170.957031 164.511719 170.460938 165.015625 170.460938 165.621094 L 170.460938 195.347656 C 170.460938 200.566406 173.230469 203.335938 178.441406 203.335938 L 184.648438 203.335938 C 189.851562 203.335938 192.621094 200.566406 192.621094 195.347656 L 192.621094 165.621094 C 192.621094 165.015625 192.125 164.511719 191.515625 164.511719 " fill-opacity="1" fill-rule="nonzero"/><path fill="#ffffff" d="M 206.476562 164.511719 L 200.714844 164.511719 C 200.105469 164.511719 199.828125 164.847656 199.828125 165.398438 L 199.828125 202.449219 C 199.828125 203.003906 200.105469 203.335938 200.714844 203.335938 L 206.476562 203.335938 C 207.03125 203.335938 207.363281 203.003906 207.363281 202.449219 L 207.363281 165.398438 C 207.363281 164.847656 207.03125 164.511719 206.476562 164.511719 " fill-opacity="1" fill-rule="nonzero"/><path fill="#ffffff" d="M 237.339844 164.511719 L 216.339844 164.511719 C 215.785156 164.566406 215.457031 164.847656 215.457031 165.453125 L 215.457031 170.945312 C 215.457031 171.5 215.785156 171.835938 216.339844 171.835938 L 227.753906 171.835938 L 213.621094 202.003906 C 213.238281 202.78125 213.570312 203.335938 214.457031 203.335938 L 236.175781 203.335938 C 236.730469 203.28125 237.0625 202.945312 237.0625 202.394531 L 237.0625 197.402344 C 237.0625 196.792969 236.730469 196.515625 236.175781 196.515625 L 224.042969 196.515625 L 238.171875 165.84375 C 238.5625 165.070312 238.230469 164.511719 237.339844 164.511719 " fill-opacity="1" fill-rule="nonzero"/></svg>