<svg xmlns="http://www.w3.org/2000/svg" xmlns:xlink="http://www.w3.org/1999/xlink" width="500" zoomAndPan="magnify" viewBox="0 0 375 374.999991" height="500" preserveAspectRatio="xMidYMid meet" version="1.0"><defs><clipPath id="id1"><path d="M 211.25 205 L 352 205 L 352 355 L 211.25 355 Z M 211.25 205 " clip-rule="nonzero"/></clipPath><clipPath id="id2"><path d="M 332 335 L 361.25 335 L 361.25 355 L 332 355 Z M 332 335 " clip-rule="nonzero"/></clipPath><clipPath id="id3"><path d="M 150 176 L 226 176 L 226 235 L 150 235 Z M 150 176 " clip-rule="nonzero"/></clipPath><clipPath id="id4"><path d="M 166.464844 158.066406 L 237.617188 216.777344 L 208.5 252.066406 L 137.347656 193.355469 Z M 166.464844 158.066406 " clip-rule="nonzero"/></clipPath><clipPath id="id5"><path d="M 166.464844 158.066406 L 237.617188 216.777344 L 208.5 252.066406 L 137.347656 193.355469 Z M 166.464844 158.066406 " clip-rule="nonzero"/></clipPath><clipPath id="id6"><path d="M 166.464844 158.066406 L 237.617188 216.777344 L 208.5 252.066406 L 137.347656 193.355469 Z M 166.464844 158.066406 " clip-rule="nonzero"/></clipPath><clipPath id="id7"><path d="M 57 37.5 L 137 37.5 L 137 116.25 L 57 116.25 Z M 57 37.5 " clip-rule="nonzero"/></clipPath><clipPath id="id8"><path d="M 120.941406 56.769531 L 191.441406 56.769531 L 191.441406 118.269531 L 120.941406 118.269531 Z M 120.941406 56.769531 " clip-rule="nonzero"/></clipPath><clipPath id="id9"><path d="M 101.488281 101.835938 L 173.488281 101.835938 L 173.488281 173.835938 L 101.488281 173.835938 Z M 101.488281 101.835938 " clip-rule="nonzero"/></clipPath><clipPath id="id10"><path d="M 22.191406 78.769531 L 101.691406 78.769531 L 101.691406 158.269531 L 22.191406 158.269531 Z M 22.191406 78.769531 " clip-rule="nonzero"/></clipPath><clipPath id="id11"><path d="M 26 127.726562 L 115 127.726562 L 115 204.976562 L 26 204.976562 Z M 26 127.726562 " clip-rule="nonzero"/></clipPath><clipPath id="id12"><path d="M 22.191406 159 L 121.191406 159 L 121.191406 187 L 22.191406 187 Z M 22.191406 159 " clip-rule="nonzero"/></clipPath></defs><path fill="#969faa" d="M 324.960938 345.324219 L 324.960938 350.160156 C 324.960938 351.492188 323.871094 352.582031 322.539062 352.582031 L 240.28125 352.582031 C 238.949219 352.582031 237.863281 351.492188 237.863281 350.160156 L 237.863281 345.324219 C 237.863281 343.988281 238.949219 342.902344 240.28125 342.902344 L 322.539062 342.902344 C 323.871094 342.902344 324.960938 343.988281 324.960938 345.324219 " fill-opacity="1" fill-rule="nonzero"/><path fill="#ccd1d9" d="M 344.316406 328.386719 L 218.507812 328.386719 C 215.832031 328.386719 213.667969 326.222656 213.667969 323.546875 L 213.667969 246.128906 C 213.667969 243.453125 215.832031 241.289062 218.507812 241.289062 L 344.316406 241.289062 C 346.988281 241.289062 349.152344 243.453125 349.152344 246.128906 L 349.152344 323.546875 C 349.152344 326.222656 346.988281 328.386719 344.316406 328.386719 " fill-opacity="1" fill-rule="nonzero"/><path fill="#69d6f4" d="M 337.054688 304.195312 L 225.765625 304.195312 C 224.433594 304.195312 223.347656 303.105469 223.347656 301.773438 L 223.347656 253.386719 C 223.347656 252.054688 224.433594 250.96875 225.765625 250.96875 L 337.054688 250.96875 C 338.390625 250.96875 339.476562 252.054688 339.476562 253.386719 L 339.476562 301.773438 C 339.476562 303.105469 338.390625 304.195312 337.054688 304.195312 " fill-opacity="1" fill-rule="nonzero"/><path fill="#aab2bd" d="M 300.765625 328.386719 L 300.765625 342.902344 L 262.054688 342.902344 L 262.054688 328.386719 L 300.765625 328.386719 " fill-opacity="1" fill-rule="nonzero"/><path fill="#aab2bd" d="M 358.832031 350.160156 C 358.832031 351.492188 357.742188 352.582031 356.410156 352.582031 L 337.054688 352.582031 C 335.722656 352.582031 334.636719 351.492188 334.636719 350.160156 C 334.636719 346.824219 335.988281 343.800781 338.171875 341.597656 C 340.375 339.414062 343.398438 338.066406 346.734375 338.066406 C 350.070312 338.066406 353.09375 339.414062 355.296875 341.597656 C 357.480469 343.800781 358.832031 346.824219 358.832031 350.160156 " fill-opacity="1" fill-rule="nonzero"/><path fill="#ff826e" d="M 339.476562 321.128906 L 339.476562 328.386719 L 315.28125 328.386719 L 315.28125 321.128906 C 315.28125 319.796875 316.367188 318.710938 317.703125 318.710938 L 337.054688 318.710938 C 338.390625 318.710938 339.476562 319.796875 339.476562 321.128906 " fill-opacity="1" fill-rule="nonzero"/><path fill="#ffeaa7" d="M 327.378906 309.03125 L 235.445312 309.03125 C 234.109375 309.03125 233.023438 307.945312 233.023438 306.613281 L 233.023438 277.582031 C 233.023438 276.25 234.109375 275.160156 235.445312 275.160156 L 327.378906 275.160156 C 328.710938 275.160156 329.796875 276.25 329.796875 277.582031 L 329.796875 306.613281 C 329.796875 307.945312 328.710938 309.03125 327.378906 309.03125 " fill-opacity="1" fill-rule="nonzero"/><path fill="#e6e9ed" d="M 247.539062 275.160156 L 247.539062 209.839844 C 247.539062 208.507812 248.628906 207.417969 249.960938 207.417969 L 298.753906 207.417969 C 299.460938 207.417969 300.132812 207.5625 300.765625 207.855469 L 300.765625 221.933594 L 314.847656 221.933594 C 315.140625 222.570312 315.28125 223.238281 315.28125 223.949219 L 315.28125 275.160156 L 247.539062 275.160156 " fill-opacity="1" fill-rule="nonzero"/><path fill="#ff826e" d="M 291.089844 224.355469 L 291.089844 229.195312 C 291.089844 230.527344 290 231.613281 288.667969 231.613281 L 259.636719 231.613281 C 258.304688 231.613281 257.21875 230.527344 257.21875 229.195312 L 257.21875 224.355469 C 257.21875 223.023438 258.304688 221.933594 259.636719 221.933594 L 288.667969 221.933594 C 290 221.933594 291.089844 223.023438 291.089844 224.355469 " fill-opacity="1" fill-rule="nonzero"/><path fill="#5cd6b3" d="M 314.847656 221.933594 L 300.765625 221.933594 L 300.765625 207.855469 C 301.296875 208.101562 301.777344 208.429688 302.191406 208.847656 L 313.855469 220.507812 C 314.269531 220.925781 314.601562 221.40625 314.847656 221.933594 " fill-opacity="1" fill-rule="nonzero"/><g clip-path="url(#id1)"><path fill="#000000" d="M 240.28125 350.160156 L 240.28125 345.324219 L 322.539062 345.324219 L 322.539062 350.160156 Z M 264.476562 330.804688 L 298.347656 330.804688 L 298.347656 340.484375 L 264.476562 340.484375 Z M 216.089844 323.546875 L 216.089844 246.128906 C 216.089844 244.796875 217.175781 243.710938 218.507812 243.710938 L 245.121094 243.710938 L 245.121094 248.546875 L 225.765625 248.546875 C 223.101562 248.546875 220.925781 250.722656 220.925781 253.386719 L 220.925781 301.773438 C 220.925781 304.4375 223.101562 306.613281 225.765625 306.613281 L 230.605469 306.613281 C 230.605469 309.277344 232.777344 311.453125 235.445312 311.453125 L 327.378906 311.453125 C 330.042969 311.453125 332.21875 309.277344 332.21875 306.613281 L 337.054688 306.613281 C 339.722656 306.613281 341.894531 304.4375 341.894531 301.773438 L 341.894531 253.386719 C 341.894531 250.722656 339.722656 248.546875 337.054688 248.546875 L 317.703125 248.546875 L 317.703125 243.710938 L 344.316406 243.710938 C 345.648438 243.710938 346.734375 244.796875 346.734375 246.128906 L 346.734375 323.546875 C 346.734375 324.882812 345.648438 325.96875 344.316406 325.96875 L 341.894531 325.96875 L 341.894531 321.128906 C 341.894531 318.464844 339.722656 316.289062 337.054688 316.289062 L 317.703125 316.289062 C 315.035156 316.289062 312.863281 318.464844 312.863281 321.128906 L 312.863281 325.96875 L 218.507812 325.96875 C 217.175781 325.96875 216.089844 324.882812 216.089844 323.546875 Z M 298.347656 209.839844 L 298.347656 224.355469 L 312.863281 224.355469 L 312.863281 272.742188 L 249.960938 272.742188 L 249.960938 209.839844 Z M 309.441406 219.515625 L 303.183594 219.515625 L 303.183594 213.261719 Z M 327.378906 272.742188 L 317.703125 272.742188 L 317.703125 253.386719 L 337.054688 253.386719 L 337.054688 301.773438 L 332.21875 301.773438 L 332.21875 277.582031 C 332.21875 274.914062 330.042969 272.742188 327.378906 272.742188 Z M 230.605469 277.582031 L 230.605469 301.773438 L 225.765625 301.773438 L 225.765625 253.386719 L 245.121094 253.386719 L 245.121094 272.742188 L 235.445312 272.742188 C 232.777344 272.742188 230.605469 274.914062 230.605469 277.582031 Z M 327.378906 301.773438 L 327.378906 306.613281 L 235.445312 306.613281 L 235.445312 277.582031 L 327.378906 277.582031 Z M 337.054688 325.96875 L 317.703125 325.96875 L 317.703125 321.128906 L 337.054688 321.128906 Z M 322.539062 340.484375 L 303.183594 340.484375 L 303.183594 330.804688 L 344.316406 330.804688 C 348.320312 330.804688 351.574219 327.554688 351.574219 323.546875 L 351.574219 246.128906 C 351.574219 242.121094 348.320312 238.871094 344.316406 238.871094 L 317.703125 238.871094 L 317.703125 223.9375 C 317.703125 222 316.945312 220.175781 315.574219 218.808594 L 303.894531 207.125 C 302.523438 205.757812 300.699219 205 298.761719 205 L 249.960938 205 C 247.292969 205 245.121094 207.171875 245.121094 209.839844 L 245.121094 238.871094 L 218.507812 238.871094 C 214.5 238.871094 211.25 242.121094 211.25 246.128906 L 211.25 323.546875 C 211.25 327.554688 214.5 330.804688 218.507812 330.804688 L 259.636719 330.804688 L 259.636719 340.484375 L 240.28125 340.484375 C 237.617188 340.484375 235.445312 342.65625 235.445312 345.324219 L 235.445312 350.160156 C 235.445312 352.828125 237.617188 355 240.28125 355 L 322.539062 355 C 325.207031 355 327.378906 352.828125 327.378906 350.160156 L 327.378906 345.324219 C 327.378906 342.65625 325.207031 340.484375 322.539062 340.484375 " fill-opacity="1" fill-rule="nonzero"/></g><path fill="#000000" d="M 245.121094 292.097656 L 245.121094 289.675781 C 245.121094 288.34375 246.207031 287.257812 247.539062 287.257812 C 248.871094 287.257812 249.960938 288.34375 249.960938 289.675781 L 249.960938 292.097656 Z M 247.539062 282.417969 C 243.535156 282.417969 240.28125 285.671875 240.28125 289.675781 L 240.28125 301.773438 L 245.121094 301.773438 L 245.121094 296.933594 L 249.960938 296.933594 L 249.960938 301.773438 L 254.796875 301.773438 L 254.796875 289.675781 C 254.796875 285.671875 251.546875 282.417969 247.539062 282.417969 " fill-opacity="1" fill-rule="nonzero"/><path fill="#000000" d="M 259.636719 288.261719 C 259.636719 289.820312 260.242188 291.285156 261.347656 292.390625 L 264.183594 295.226562 C 264.371094 295.414062 264.476562 295.660156 264.476562 295.941406 C 264.476562 296.492188 264.03125 296.933594 263.484375 296.933594 L 259.636719 296.933594 L 259.636719 301.773438 L 263.484375 301.773438 C 266.695312 301.773438 269.316406 299.15625 269.316406 295.933594 C 269.316406 294.375 268.710938 292.910156 267.605469 291.804688 L 264.769531 288.96875 C 264.578125 288.78125 264.476562 288.535156 264.476562 288.25 C 264.476562 287.703125 264.921875 287.257812 265.46875 287.257812 L 269.316406 287.257812 L 269.316406 282.417969 L 265.46875 282.417969 C 262.253906 282.417969 259.636719 285.039062 259.636719 288.261719 " fill-opacity="1" fill-rule="nonzero"/><path fill="#000000" d="M 274.152344 292.097656 C 274.152344 297.4375 278.492188 301.773438 283.832031 301.773438 L 283.832031 296.933594 C 281.164062 296.933594 278.992188 294.761719 278.992188 292.097656 C 278.992188 289.433594 281.164062 287.257812 283.832031 287.257812 L 283.832031 282.417969 C 278.492188 282.417969 274.152344 286.757812 274.152344 292.097656 " fill-opacity="1" fill-rule="nonzero"/><path fill="#000000" d="M 288.667969 287.257812 L 293.507812 287.257812 L 293.507812 296.933594 L 288.667969 296.933594 L 288.667969 301.773438 L 303.183594 301.773438 L 303.183594 296.933594 L 298.347656 296.933594 L 298.347656 287.257812 L 303.183594 287.257812 L 303.183594 282.417969 L 288.667969 282.417969 L 288.667969 287.257812 " fill-opacity="1" fill-rule="nonzero"/><path fill="#000000" d="M 308.023438 287.257812 L 312.863281 287.257812 L 312.863281 296.933594 L 308.023438 296.933594 L 308.023438 301.773438 L 322.539062 301.773438 L 322.539062 296.933594 L 317.703125 296.933594 L 317.703125 287.257812 L 322.539062 287.257812 L 322.539062 282.417969 L 308.023438 282.417969 L 308.023438 287.257812 " fill-opacity="1" fill-rule="nonzero"/><path fill="#000000" d="M 259.636719 224.355469 L 288.667969 224.355469 L 288.667969 229.195312 L 259.636719 229.195312 Z M 259.636719 234.03125 L 288.667969 234.03125 C 291.335938 234.03125 293.507812 231.859375 293.507812 229.195312 L 293.507812 224.355469 C 293.507812 221.691406 291.335938 219.515625 288.667969 219.515625 L 259.636719 219.515625 C 256.972656 219.515625 254.796875 221.691406 254.796875 224.355469 L 254.796875 229.195312 C 254.796875 231.859375 256.972656 234.03125 259.636719 234.03125 " fill-opacity="1" fill-rule="nonzero"/><path fill="#000000" d="M 264.476562 238.871094 L 254.796875 238.871094 L 254.796875 243.710938 L 264.476562 243.710938 L 264.476562 238.871094 " fill-opacity="1" fill-rule="nonzero"/><path fill="#000000" d="M 288.667969 243.710938 L 288.667969 238.871094 L 269.316406 238.871094 L 269.316406 243.710938 L 288.667969 243.710938 " fill-opacity="1" fill-rule="nonzero"/><path fill="#000000" d="M 293.507812 248.546875 L 254.796875 248.546875 L 254.796875 253.386719 L 293.507812 253.386719 L 293.507812 248.546875 " fill-opacity="1" fill-rule="nonzero"/><path fill="#000000" d="M 259.636719 258.226562 L 254.796875 258.226562 L 254.796875 263.066406 L 259.636719 263.066406 L 259.636719 258.226562 " fill-opacity="1" fill-rule="nonzero"/><path fill="#000000" d="M 264.476562 263.066406 L 269.316406 263.066406 L 269.316406 258.226562 L 264.476562 258.226562 L 264.476562 263.066406 " fill-opacity="1" fill-rule="nonzero"/><path fill="#000000" d="M 274.152344 263.066406 L 278.992188 263.066406 L 278.992188 258.226562 L 274.152344 258.226562 L 274.152344 263.066406 " fill-opacity="1" fill-rule="nonzero"/><g clip-path="url(#id2)"><path fill="#000000" d="M 337.054688 350.160156 C 337.054688 344.820312 341.394531 340.484375 346.734375 340.484375 C 352.074219 340.484375 356.410156 344.820312 356.410156 350.160156 Z M 346.734375 335.644531 C 338.730469 335.644531 332.21875 342.15625 332.21875 350.160156 C 332.21875 352.828125 334.390625 355 337.054688 355 L 356.410156 355 C 359.078125 355 361.25 352.828125 361.25 350.160156 C 361.25 342.15625 354.738281 335.644531 346.734375 335.644531 " fill-opacity="1" fill-rule="nonzero"/></g><g clip-path="url(#id3)"><g clip-path="url(#id4)"><g clip-path="url(#id5)"><g clip-path="url(#id6)"><path fill="#ff9b19" d="M 225.097656 231.332031 C 225.34375 230.539062 225.4375 229.730469 225.378906 228.90625 C 225.097656 224.867188 222.125 221.449219 220.144531 218.121094 C 218.105469 214.695312 215.949219 211.332031 214.160156 207.765625 C 211.039062 201.546875 209.914062 200.109375 206.875 193.851562 C 205.113281 190.234375 199.835938 193.222656 200.8125 196.605469 C 202.75 203.34375 205.648438 206.839844 208.394531 213.128906 C 203.789062 209.425781 196.671875 203.746094 191.789062 200.40625 C 179.882812 192.265625 168.015625 184.023438 155.621094 176.636719 C 152.59375 174.832031 149.003906 179.613281 151.949219 181.75 C 163.367188 190.042969 174.816406 198.28125 185.554688 207.449219 C 190.933594 212.042969 201.375 220.542969 201.5 220.648438 C 195.566406 219.976562 187.359375 219.1875 181.394531 219.761719 C 177.980469 220.09375 176.796875 225.703125 180.695312 226.195312 C 186.441406 226.917969 195.199219 228.988281 200.890625 230.054688 C 204.234375 230.679688 207.539062 231.480469 210.828125 232.328125 C 213.632812 233.054688 216.324219 234.574219 219.246094 234.789062 C 220.105469 234.886719 220.949219 234.800781 221.773438 234.535156 C 222.597656 234.265625 223.328125 233.835938 223.964844 233.25 C 224.492188 232.699219 224.871094 232.058594 225.097656 231.332031 Z M 225.097656 231.332031 " fill-opacity="1" fill-rule="nonzero"/></g></g></g></g><path fill="#78a2d2" d="M 96.898438 38.59375 C 95.644531 38.59375 94.394531 38.65625 93.144531 38.777344 C 91.894531 38.902344 90.65625 39.085938 89.425781 39.328125 C 88.195312 39.574219 86.980469 39.878906 85.78125 40.242188 C 84.578125 40.605469 83.398438 41.027344 82.242188 41.507812 C 81.082031 41.988281 79.949219 42.523438 78.84375 43.113281 C 77.734375 43.703125 76.660156 44.347656 75.617188 45.046875 C 74.574219 45.742188 73.570312 46.488281 72.597656 47.28125 C 71.628906 48.078125 70.699219 48.917969 69.8125 49.804688 C 68.925781 50.691406 68.085938 51.621094 67.289062 52.589844 C 66.492188 53.558594 65.746094 54.566406 65.050781 55.605469 C 64.355469 56.648438 63.710938 57.722656 63.117188 58.828125 C 62.527344 59.933594 61.992188 61.066406 61.511719 62.226562 C 61.03125 63.382812 60.609375 64.5625 60.246094 65.761719 C 59.878906 66.960938 59.574219 68.175781 59.332031 69.40625 C 59.085938 70.636719 58.902344 71.875 58.78125 73.121094 C 58.65625 74.371094 58.59375 75.621094 58.59375 76.875 C 58.59375 78.128906 58.65625 79.378906 58.78125 80.628906 C 58.902344 81.875 59.085938 83.113281 59.332031 84.34375 C 59.574219 85.574219 59.878906 86.789062 60.246094 87.988281 C 60.609375 89.1875 61.03125 90.367188 61.511719 91.523438 C 61.992188 92.683594 62.527344 93.816406 63.117188 94.921875 C 63.710938 96.027344 64.355469 97.101562 65.050781 98.144531 C 65.746094 99.183594 66.492188 100.191406 67.289062 101.160156 C 68.085938 102.128906 68.925781 103.058594 69.8125 103.945312 C 70.699219 104.832031 71.628906 105.671875 72.597656 106.46875 C 73.570312 107.261719 74.574219 108.007812 75.617188 108.703125 C 76.660156 109.402344 77.734375 110.046875 78.84375 110.636719 C 79.949219 111.226562 81.082031 111.761719 82.242188 112.242188 C 83.398438 112.722656 84.578125 113.144531 85.78125 113.507812 C 86.980469 113.871094 88.195312 114.175781 89.425781 114.421875 C 90.65625 114.664062 91.894531 114.847656 93.144531 114.972656 C 94.394531 115.09375 95.644531 115.15625 96.898438 115.15625 C 98.152344 115.15625 99.40625 115.09375 100.652344 114.972656 C 101.902344 114.847656 103.140625 114.664062 104.371094 114.421875 C 105.601562 114.175781 106.816406 113.871094 108.019531 113.507812 C 109.21875 113.144531 110.398438 112.722656 111.558594 112.242188 C 112.714844 111.761719 113.847656 111.226562 114.953125 110.636719 C 116.0625 110.046875 117.136719 109.402344 118.179688 108.703125 C 119.222656 108.007812 120.230469 107.261719 121.199219 106.46875 C 122.167969 105.671875 123.097656 104.832031 123.984375 103.945312 C 124.871094 103.058594 125.710938 102.128906 126.507812 101.160156 C 127.304688 100.191406 128.050781 99.183594 128.746094 98.144531 C 129.445312 97.101562 130.089844 96.027344 130.679688 94.921875 C 131.269531 93.816406 131.804688 92.683594 132.285156 91.523438 C 132.765625 90.367188 133.1875 89.1875 133.554688 87.988281 C 133.917969 86.789062 134.222656 85.574219 134.464844 84.34375 C 134.710938 83.113281 134.894531 81.875 135.019531 80.628906 C 135.140625 79.378906 135.203125 78.128906 135.203125 76.875 C 135.203125 75.621094 135.140625 74.371094 135.019531 73.121094 C 134.894531 71.875 134.710938 70.636719 134.464844 69.40625 C 134.222656 68.175781 133.917969 66.960938 133.554688 65.761719 C 133.1875 64.5625 132.765625 63.382812 132.285156 62.226562 C 131.804688 61.066406 131.269531 59.933594 130.679688 58.828125 C 130.089844 57.722656 129.445312 56.648438 128.746094 55.605469 C 128.050781 54.566406 127.304688 53.558594 126.507812 52.589844 C 125.710938 51.621094 124.871094 50.691406 123.984375 49.804688 C 123.097656 48.917969 122.167969 48.078125 121.199219 47.28125 C 120.230469 46.488281 119.222656 45.742188 118.179688 45.046875 C 117.136719 44.347656 116.0625 43.703125 114.953125 43.113281 C 113.847656 42.523438 112.714844 41.988281 111.558594 41.507812 C 110.398438 41.027344 109.21875 40.605469 108.019531 40.242188 C 106.816406 39.878906 105.601562 39.574219 104.371094 39.328125 C 103.140625 39.085938 101.902344 38.902344 100.652344 38.777344 C 99.40625 38.65625 98.152344 38.59375 96.898438 38.59375 Z M 96.898438 38.59375 " fill-opacity="1" fill-rule="nonzero"/><path fill="#1f212b" d="M 126.707031 92.230469 C 126.625 92.230469 126.542969 92.210938 126.46875 92.175781 C 126.195312 92.042969 126.082031 91.714844 126.214844 91.445312 C 126.433594 90.996094 126.640625 90.546875 126.835938 90.09375 C 127.59375 88.332031 128.199219 86.488281 128.632812 84.609375 C 128.703125 84.316406 128.992188 84.132812 129.289062 84.199219 C 129.585938 84.269531 129.769531 84.5625 129.699219 84.855469 C 129.253906 86.796875 128.625 88.703125 127.839844 90.527344 C 127.636719 90.996094 127.425781 91.460938 127.199219 91.921875 C 127.105469 92.117188 126.910156 92.230469 126.707031 92.230469 Z M 130.148438 80.585938 C 130.132812 80.585938 130.117188 80.585938 130.101562 80.585938 C 129.800781 80.558594 129.574219 80.292969 129.601562 79.992188 C 129.667969 79.285156 129.707031 78.574219 129.726562 77.867188 C 129.835938 73.464844 129.082031 69.15625 127.480469 65.066406 C 127.371094 64.785156 127.507812 64.46875 127.792969 64.355469 C 128.074219 64.246094 128.390625 64.386719 128.5 64.667969 C 130.152344 68.894531 130.933594 73.34375 130.816406 77.894531 C 130.800781 78.628906 130.757812 79.359375 130.691406 80.089844 C 130.667969 80.371094 130.429688 80.585938 130.148438 80.585938 Z M 72.53125 54.703125 C 72.398438 54.703125 72.265625 54.65625 72.160156 54.554688 C 71.9375 54.347656 71.925781 54.003906 72.132812 53.78125 C 77.660156 47.867188 85.136719 44.128906 93.1875 43.261719 C 93.488281 43.238281 93.757812 43.445312 93.789062 43.746094 C 93.824219 44.046875 93.605469 44.316406 93.304688 44.347656 C 85.515625 45.1875 78.28125 48.804688 72.933594 54.527344 C 72.824219 54.644531 72.679688 54.703125 72.53125 54.703125 Z M 74.222656 101.796875 C 74.085938 101.796875 73.953125 101.746094 73.847656 101.648438 C 62.296875 90.871094 59.667969 73.800781 67.449219 60.132812 C 67.601562 59.871094 67.933594 59.777344 68.199219 59.929688 C 68.460938 60.078125 68.550781 60.414062 68.402344 60.675781 C 60.871094 73.898438 63.417969 90.417969 74.59375 100.847656 C 74.816406 101.054688 74.828125 101.398438 74.621094 101.621094 C 74.511719 101.734375 74.367188 101.796875 74.222656 101.796875 Z M 111.507812 107.5 C 111.304688 107.5 111.109375 107.386719 111.015625 107.191406 C 110.882812 106.921875 110.996094 106.59375 111.269531 106.460938 C 114.90625 104.707031 118.164062 102.308594 120.945312 99.332031 C 122.070312 98.128906 123.105469 96.839844 124.03125 95.492188 C 124.199219 95.246094 124.542969 95.179688 124.789062 95.351562 C 125.039062 95.523438 125.101562 95.863281 124.929688 96.113281 C 123.976562 97.503906 122.90625 98.835938 121.746094 100.078125 C 118.871094 103.15625 115.503906 105.632812 111.742188 107.445312 C 111.667969 107.484375 111.585938 107.5 111.507812 107.5 Z M 111.507812 107.5 " fill-opacity="1" fill-rule="nonzero"/><path fill="#fefdef" d="M 90.878906 114.0625 L 90.878906 87.265625 L 81.03125 87.265625 L 81.03125 77.421875 L 90.878906 77.421875 L 90.878906 67.609375 C 90.667969 58.804688 97.332031 50.242188 112.765625 54.988281 L 112.734375 64.296875 L 107.371094 64.261719 C 103.246094 64.261719 101.824219 65.625 101.824219 68.59375 L 101.824219 77.421875 L 113.617188 77.421875 L 111.546875 87.265625 L 101.824219 87.265625 L 101.824219 114.0625 " fill-opacity="1" fill-rule="nonzero"/><path fill="#1f212b" d="M 102.371094 114.0625 L 101.277344 114.0625 L 101.277344 86.71875 L 111.101562 86.71875 L 112.941406 77.96875 L 101.277344 77.96875 L 101.277344 68.59375 C 101.277344 65.175781 103.097656 63.714844 107.371094 63.714844 L 112.191406 63.746094 L 112.21875 55.398438 C 105.5 53.410156 99.96875 53.867188 96.195312 56.722656 C 93.054688 59.097656 91.316406 63.0625 91.425781 67.597656 L 91.425781 77.96875 L 81.578125 77.96875 L 81.578125 86.71875 L 91.425781 86.71875 L 91.425781 114.0625 L 90.332031 114.0625 L 90.332031 87.8125 L 80.480469 87.8125 L 80.480469 76.875 L 90.332031 76.875 L 90.332031 67.609375 C 90.214844 62.734375 92.109375 58.441406 95.535156 55.851562 C 98.417969 53.667969 103.777344 51.652344 112.925781 54.46875 L 113.316406 54.585938 L 113.28125 64.847656 L 107.367188 64.808594 C 103.207031 64.808594 102.371094 66.257812 102.371094 68.59375 L 102.371094 76.875 L 114.289062 76.875 L 111.988281 87.8125 L 102.371094 87.8125 Z M 102.371094 114.0625 " fill-opacity="1" fill-rule="nonzero"/><g clip-path="url(#id7)"><path fill="#1f212b" d="M 96.898438 116.25 C 75.175781 116.25 57.5 98.585938 57.5 76.875 C 57.5 55.164062 75.175781 37.5 96.898438 37.5 C 118.625 37.5 136.296875 55.164062 136.296875 76.875 C 136.296875 98.585938 118.625 116.25 96.898438 116.25 Z M 96.898438 39.6875 C 76.382812 39.6875 59.691406 56.371094 59.691406 76.875 C 59.691406 97.378906 76.382812 114.0625 96.898438 114.0625 C 117.417969 114.0625 134.109375 97.378906 134.109375 76.875 C 134.109375 56.371094 117.417969 39.6875 96.898438 39.6875 Z M 96.898438 39.6875 " fill-opacity="1" fill-rule="nonzero"/></g><g clip-path="url(#id8)"><path fill="#ffc107" d="M 171.605469 56.769531 C 165.378906 56.769531 159.824219 65.046875 156.195312 77.988281 C 152.5625 65.046875 147.003906 56.769531 140.78125 56.769531 C 129.835938 56.769531 120.960938 84.304688 120.960938 118.269531 L 129.554688 118.269531 C 129.554688 86.730469 134.703125 61.894531 140.78125 61.894531 C 146.808594 61.894531 151.8125 84.371094 151.894531 113.144531 L 160.488281 113.144531 C 160.570312 84.371094 165.578125 61.894531 171.605469 61.894531 C 177.683594 61.894531 182.828125 86.730469 182.828125 118.269531 L 191.421875 118.269531 C 191.421875 84.304688 182.546875 56.769531 171.605469 56.769531 Z M 171.605469 56.769531 " fill-opacity="1" fill-rule="nonzero"/></g><path fill="#8d8dd8" d="M 156.773438 103.121094 L 118.203125 103.121094 C 109.71875 103.121094 102.773438 110.066406 102.773438 118.550781 L 102.773438 157.121094 C 102.773438 165.605469 109.71875 172.550781 118.203125 172.550781 L 156.773438 172.550781 C 165.261719 172.550781 172.203125 165.605469 172.203125 157.121094 L 172.203125 118.550781 C 172.203125 110.066406 165.261719 103.121094 156.773438 103.121094 Z M 156.773438 103.121094 " fill-opacity="1" fill-rule="nonzero"/><path fill="#8585cc" d="M 170.660156 112.121094 C 168.347656 106.722656 162.945312 103.121094 156.773438 103.121094 L 146.230469 103.121094 C 154.972656 104.664062 163.203125 107.75 170.660156 112.121094 Z M 170.660156 112.121094 " fill-opacity="1" fill-rule="nonzero"/><path fill="#bd82f4" d="M 102.773438 118.550781 L 102.773438 157.121094 C 102.773438 165.605469 109.71875 172.550781 118.203125 172.550781 L 156.773438 172.550781 C 165.261719 172.550781 172.203125 165.605469 172.203125 157.121094 L 172.203125 122.148438 C 160.890625 114.179688 147.261719 109.550781 132.347656 109.550781 C 121.546875 109.550781 111.261719 112.121094 102.261719 116.492188 C 102.515625 117.007812 102.773438 117.777344 102.773438 118.550781 Z M 102.773438 118.550781 " fill-opacity="1" fill-rule="nonzero"/><path fill="#ed73f4" d="M 102.773438 157.121094 C 102.773438 165.605469 109.71875 172.550781 118.203125 172.550781 L 156.773438 172.550781 C 165.261719 172.550781 172.203125 165.605469 172.203125 157.121094 L 172.203125 131.921875 C 161.402344 122.664062 147.515625 117.265625 132.347656 117.265625 C 121.546875 117.265625 111.515625 120.09375 102.773438 124.722656 Z M 102.773438 157.121094 " fill-opacity="1" fill-rule="nonzero"/><path fill="#f97dcd" d="M 102.773438 157.121094 C 102.773438 165.605469 109.71875 172.550781 118.203125 172.550781 L 156.773438 172.550781 C 165.261719 172.550781 172.203125 165.605469 172.203125 157.121094 L 172.203125 142.722656 C 162.429688 131.921875 148.03125 124.980469 132.347656 124.980469 C 121.546875 124.980469 111.261719 128.320312 102.773438 133.722656 Z M 102.773438 157.121094 " fill-opacity="1" fill-rule="nonzero"/><path fill="#fc9c95" d="M 102.773438 157.121094 C 102.773438 165.605469 109.71875 172.550781 118.203125 172.550781 L 156.773438 172.550781 C 165.261719 172.550781 172.203125 165.605469 172.203125 157.121094 L 172.203125 155.578125 C 164.230469 141.949219 149.316406 132.691406 132.347656 132.691406 C 121.03125 132.691406 110.746094 136.808594 102.773438 143.492188 Z M 102.773438 157.121094 " fill-opacity="1" fill-rule="nonzero"/><path fill="#ffac99" d="M 102.773438 157.121094 C 102.773438 165.605469 109.71875 172.550781 118.203125 172.550781 L 156.773438 172.550781 C 161.660156 172.550781 166.03125 170.234375 168.859375 166.636719 C 163.71875 151.464844 149.316406 140.40625 132.347656 140.40625 C 120.515625 140.40625 109.972656 145.808594 102.773438 154.292969 Z M 102.773438 157.121094 " fill-opacity="1" fill-rule="nonzero"/><path fill="#ffc49c" d="M 118.203125 172.550781 L 156.773438 172.550781 C 158.832031 172.550781 160.632812 172.292969 162.175781 171.523438 C 158.832031 158.148438 146.746094 148.121094 132.347656 148.121094 C 120.261719 148.121094 109.972656 155.066406 104.832031 164.835938 C 107.660156 169.464844 112.546875 172.550781 118.203125 172.550781 Z M 118.203125 172.550781 " fill-opacity="1" fill-rule="nonzero"/><path fill="#ffde8d" d="M 118.203125 172.550781 L 154.460938 172.550781 C 151.890625 162.777344 142.890625 155.835938 132.347656 155.835938 C 122.574219 155.835938 114.089844 162.007812 110.746094 170.75 C 113.058594 171.777344 115.632812 172.550781 118.203125 172.550781 Z M 118.203125 172.550781 " fill-opacity="1" fill-rule="nonzero"/><path fill="#fff69f" d="M 146.230469 172.550781 C 143.917969 167.148438 138.515625 163.550781 132.347656 163.550781 C 126.175781 163.550781 120.773438 167.148438 118.460938 172.550781 Z M 146.230469 172.550781 " fill-opacity="1" fill-rule="nonzero"/><g clip-path="url(#id9)"><path fill="#8b75a1" d="M 158.058594 104.40625 C 165.261719 104.40625 170.917969 110.066406 170.917969 117.265625 L 170.917969 158.40625 C 170.917969 165.605469 165.261719 171.265625 158.058594 171.265625 L 116.917969 171.265625 C 109.71875 171.265625 104.058594 165.605469 104.058594 158.40625 L 104.058594 117.265625 C 104.058594 110.066406 109.71875 104.40625 116.917969 104.40625 L 158.058594 104.40625 M 158.058594 101.835938 L 116.917969 101.835938 C 108.429688 101.835938 101.488281 108.777344 101.488281 117.265625 L 101.488281 158.40625 C 101.488281 166.894531 108.429688 173.835938 116.917969 173.835938 L 158.058594 173.835938 C 166.546875 173.835938 173.488281 166.894531 173.488281 158.40625 L 173.488281 117.265625 C 173.488281 108.777344 166.546875 101.835938 158.058594 101.835938 Z M 158.058594 101.835938 " fill-opacity="1" fill-rule="nonzero"/></g><path fill="#ffffff" d="M 147.773438 163.550781 L 127.203125 163.550781 C 118.71875 163.550781 111.773438 156.605469 111.773438 148.121094 L 111.773438 127.550781 C 111.773438 119.066406 118.71875 112.121094 127.203125 112.121094 L 147.773438 112.121094 C 156.261719 112.121094 163.203125 119.066406 163.203125 127.550781 L 163.203125 148.121094 C 163.203125 156.605469 156.261719 163.550781 147.773438 163.550781 Z M 127.203125 117.265625 C 121.546875 117.265625 116.917969 121.894531 116.917969 127.550781 L 116.917969 148.121094 C 116.917969 153.777344 121.546875 158.40625 127.203125 158.40625 L 147.773438 158.40625 C 153.429688 158.40625 158.058594 153.777344 158.058594 148.121094 L 158.058594 127.550781 C 158.058594 121.894531 153.429688 117.265625 147.773438 117.265625 Z M 127.203125 117.265625 " fill-opacity="1" fill-rule="nonzero"/><path fill="#ffffff" d="M 137.488281 150.691406 C 130.289062 150.691406 124.632812 145.035156 124.632812 137.835938 C 124.632812 130.636719 130.289062 124.980469 137.488281 124.980469 C 144.6875 124.980469 150.347656 130.636719 150.347656 137.835938 C 150.347656 145.035156 144.6875 150.691406 137.488281 150.691406 Z M 137.488281 130.121094 C 133.117188 130.121094 129.773438 133.464844 129.773438 137.835938 C 129.773438 142.207031 133.117188 145.550781 137.488281 145.550781 C 141.859375 145.550781 145.203125 142.207031 145.203125 137.835938 C 145.203125 133.464844 141.859375 130.121094 137.488281 130.121094 Z M 150.347656 122.40625 C 150.003906 122.40625 149.675781 122.472656 149.363281 122.601562 C 149.046875 122.734375 148.769531 122.917969 148.527344 123.160156 C 148.285156 123.402344 148.101562 123.679688 147.96875 123.996094 C 147.839844 124.308594 147.773438 124.636719 147.773438 124.980469 C 147.773438 125.320312 147.839844 125.648438 147.96875 125.960938 C 148.101562 126.277344 148.285156 126.554688 148.527344 126.796875 C 148.769531 127.039062 149.046875 127.222656 149.363281 127.355469 C 149.675781 127.484375 150.003906 127.550781 150.347656 127.550781 C 150.6875 127.550781 151.015625 127.484375 151.328125 127.355469 C 151.644531 127.222656 151.921875 127.039062 152.164062 126.796875 C 152.40625 126.554688 152.589844 126.277344 152.722656 125.960938 C 152.851562 125.648438 152.917969 125.320312 152.917969 124.980469 C 152.917969 124.636719 152.851562 124.308594 152.722656 123.996094 C 152.589844 123.679688 152.40625 123.402344 152.164062 123.160156 C 151.921875 122.917969 151.644531 122.734375 151.328125 122.601562 C 151.015625 122.472656 150.6875 122.40625 150.347656 122.40625 Z M 150.347656 122.40625 " fill-opacity="1" fill-rule="nonzero"/><path fill="#60be92" d="M 100.585938 118.519531 C 100.585938 119.785156 100.527344 121.046875 100.402344 122.304688 C 100.277344 123.566406 100.09375 124.816406 99.84375 126.058594 C 99.597656 127.300781 99.289062 128.527344 98.921875 129.738281 C 98.554688 130.949219 98.128906 132.136719 97.644531 133.308594 C 97.160156 134.476562 96.621094 135.621094 96.023438 136.734375 C 95.425781 137.851562 94.777344 138.9375 94.074219 139.988281 C 93.371094 141.042969 92.617188 142.058594 91.816406 143.035156 C 91.011719 144.015625 90.164062 144.949219 89.269531 145.84375 C 88.375 146.742188 87.4375 147.589844 86.457031 148.390625 C 85.480469 149.195312 84.464844 149.949219 83.414062 150.652344 C 82.359375 151.355469 81.277344 152.003906 80.160156 152.601562 C 79.042969 153.199219 77.898438 153.738281 76.730469 154.222656 C 75.5625 154.707031 74.371094 155.132812 73.160156 155.5 C 71.949219 155.867188 70.722656 156.175781 69.480469 156.421875 C 68.238281 156.667969 66.988281 156.855469 65.730469 156.976562 C 64.46875 157.101562 63.207031 157.164062 61.941406 157.164062 C 60.675781 157.164062 59.414062 157.101562 58.152344 156.976562 C 56.894531 156.855469 55.644531 156.667969 54.402344 156.421875 C 53.160156 156.175781 51.933594 155.867188 50.722656 155.5 C 49.511719 155.132812 48.320312 154.707031 47.152344 154.222656 C 45.984375 153.738281 44.839844 153.199219 43.722656 152.601562 C 42.609375 152.003906 41.523438 151.355469 40.472656 150.652344 C 39.417969 149.949219 38.402344 149.195312 37.425781 148.390625 C 36.445312 147.589844 35.511719 146.742188 34.613281 145.84375 C 33.71875 144.949219 32.871094 144.015625 32.066406 143.035156 C 31.265625 142.058594 30.511719 141.042969 29.808594 139.988281 C 29.105469 138.9375 28.457031 137.851562 27.859375 136.734375 C 27.261719 135.621094 26.722656 134.476562 26.238281 133.308594 C 25.753906 132.136719 25.328125 130.949219 24.960938 129.738281 C 24.59375 128.527344 24.285156 127.300781 24.039062 126.058594 C 23.792969 124.816406 23.605469 123.566406 23.480469 122.304688 C 23.359375 121.046875 23.296875 119.785156 23.296875 118.519531 C 23.296875 117.253906 23.359375 115.992188 23.480469 114.730469 C 23.605469 113.472656 23.792969 112.21875 24.039062 110.980469 C 24.285156 109.738281 24.59375 108.511719 24.960938 107.300781 C 25.328125 106.089844 25.753906 104.898438 26.238281 103.730469 C 26.722656 102.558594 27.261719 101.417969 27.859375 100.300781 C 28.457031 99.183594 29.105469 98.101562 29.808594 97.046875 C 30.511719 95.996094 31.265625 94.980469 32.066406 94.003906 C 32.871094 93.023438 33.71875 92.085938 34.613281 91.191406 C 35.511719 90.296875 36.445312 89.449219 37.425781 88.644531 C 38.402344 87.84375 39.417969 87.089844 40.472656 86.386719 C 41.523438 85.683594 42.609375 85.03125 43.722656 84.4375 C 44.839844 83.839844 45.984375 83.300781 47.152344 82.816406 C 48.320312 82.332031 49.511719 81.90625 50.722656 81.535156 C 51.933594 81.167969 53.160156 80.863281 54.402344 80.617188 C 55.644531 80.367188 56.894531 80.183594 58.152344 80.058594 C 59.414062 79.933594 60.675781 79.871094 61.941406 79.871094 C 63.207031 79.871094 64.46875 79.933594 65.730469 80.058594 C 66.988281 80.183594 68.238281 80.367188 69.480469 80.617188 C 70.722656 80.863281 71.949219 81.167969 73.160156 81.535156 C 74.371094 81.90625 75.5625 82.332031 76.730469 82.816406 C 77.898438 83.300781 79.042969 83.839844 80.160156 84.4375 C 81.277344 85.03125 82.359375 85.683594 83.414062 86.386719 C 84.464844 87.089844 85.480469 87.84375 86.457031 88.644531 C 87.4375 89.449219 88.375 90.296875 89.269531 91.191406 C 90.164062 92.085938 91.011719 93.023438 91.816406 94.003906 C 92.617188 94.980469 93.371094 95.996094 94.074219 97.046875 C 94.777344 98.101562 95.425781 99.183594 96.023438 100.300781 C 96.621094 101.417969 97.160156 102.558594 97.644531 103.730469 C 98.128906 104.898438 98.554688 106.089844 98.921875 107.300781 C 99.289062 108.511719 99.597656 109.738281 99.84375 110.980469 C 100.09375 112.21875 100.277344 113.472656 100.402344 114.730469 C 100.527344 115.992188 100.585938 117.253906 100.585938 118.519531 Z M 100.585938 118.519531 " fill-opacity="1" fill-rule="nonzero"/><g clip-path="url(#id10)"><path fill="#1f212b" d="M 61.941406 158.269531 C 40.023438 158.269531 22.191406 140.4375 22.191406 118.519531 C 22.191406 96.601562 40.023438 78.769531 61.941406 78.769531 C 83.859375 78.769531 101.691406 96.601562 101.691406 118.519531 C 101.691406 140.4375 83.859375 158.269531 61.941406 158.269531 Z M 61.941406 80.976562 C 41.242188 80.976562 24.398438 97.816406 24.398438 118.519531 C 24.398438 139.21875 41.242188 156.058594 61.941406 156.058594 C 82.644531 156.058594 99.484375 139.21875 99.484375 118.519531 C 99.484375 97.816406 82.644531 80.976562 61.941406 80.976562 Z M 61.941406 80.976562 " fill-opacity="1" fill-rule="nonzero"/></g><path fill="#000000" d="M 79.054688 90.0625 C 78.960938 90.0625 78.863281 90.035156 78.777344 89.984375 C 78.066406 89.566406 77.335938 89.171875 76.605469 88.808594 C 76.332031 88.671875 76.21875 88.34375 76.351562 88.066406 C 76.488281 87.792969 76.816406 87.683594 77.09375 87.816406 C 77.851562 88.191406 78.605469 88.601562 79.339844 89.035156 C 79.601562 89.191406 79.6875 89.527344 79.53125 89.789062 C 79.429688 89.964844 79.242188 90.0625 79.054688 90.0625 Z M 79.054688 90.0625 " fill-opacity="1" fill-rule="nonzero"/><path fill="#000000" d="M 82.367188 92.292969 C 82.25 92.292969 82.136719 92.257812 82.035156 92.179688 C 81.675781 91.90625 81.316406 91.640625 80.949219 91.386719 C 80.699219 91.210938 80.636719 90.867188 80.8125 90.617188 C 80.988281 90.367188 81.332031 90.304688 81.582031 90.480469 C 81.960938 90.746094 82.335938 91.019531 82.707031 91.304688 C 82.949219 91.488281 82.992188 91.835938 82.808594 92.078125 C 82.699219 92.21875 82.535156 92.292969 82.367188 92.292969 Z M 82.367188 92.292969 " fill-opacity="1" fill-rule="nonzero"/><path fill="#1f212b" d="M 61.941406 152.746094 C 43.066406 152.746094 27.710938 137.390625 27.710938 118.519531 C 27.710938 99.644531 43.066406 84.289062 61.941406 84.289062 C 65.992188 84.289062 69.953125 84.992188 73.726562 86.375 C 74.011719 86.476562 74.160156 86.792969 74.054688 87.082031 C 73.949219 87.367188 73.632812 87.519531 73.34375 87.410156 C 69.699219 86.070312 65.859375 85.394531 61.941406 85.394531 C 43.675781 85.394531 28.816406 100.253906 28.816406 118.519531 C 28.816406 136.785156 43.675781 151.644531 61.941406 151.644531 C 80.207031 151.644531 95.066406 136.785156 95.066406 118.519531 C 95.066406 109.199219 91.109375 100.261719 84.207031 93.992188 C 83.980469 93.785156 83.964844 93.4375 84.167969 93.210938 C 84.375 92.984375 84.722656 92.96875 84.949219 93.175781 C 92.078125 99.652344 96.171875 108.890625 96.171875 118.519531 C 96.171875 137.390625 80.816406 152.746094 61.941406 152.746094 Z M 61.941406 152.746094 " fill-opacity="1" fill-rule="nonzero"/><path fill="#ffffff" d="M 86.417969 115.042969 C 85.734375 115.042969 85.039062 114.859375 84.414062 114.480469 C 65.617188 103.046875 40.429688 109.660156 40.179688 109.726562 C 38.117188 110.28125 35.996094 109.066406 35.4375 107.011719 C 34.878906 104.953125 36.09375 102.832031 38.148438 102.269531 C 39.308594 101.953125 66.75 94.6875 88.429688 107.875 C 90.253906 108.984375 90.832031 111.363281 89.722656 113.1875 C 88.996094 114.382812 87.722656 115.042969 86.417969 115.042969 Z M 86.417969 115.042969 " fill-opacity="1" fill-rule="nonzero"/><path fill="#1f212b" d="M 86.417969 115.59375 C 85.609375 115.59375 84.816406 115.371094 84.125 114.949219 C 65.46875 103.601562 40.574219 110.191406 40.324219 110.257812 C 37.976562 110.890625 35.542969 109.5 34.90625 107.152344 C 34.269531 104.804688 35.660156 102.375 38.003906 101.734375 C 39.171875 101.417969 66.835938 94.09375 88.71875 107.402344 C 89.726562 108.015625 90.433594 108.984375 90.714844 110.132812 C 90.992188 111.277344 90.808594 112.464844 90.195312 113.472656 C 89.386719 114.800781 87.972656 115.59375 86.417969 115.59375 Z M 57.335938 107.1875 C 65.726562 107.1875 75.875 108.636719 84.699219 114.007812 C 85.21875 114.324219 85.8125 114.492188 86.417969 114.492188 C 87.585938 114.492188 88.644531 113.894531 89.253906 112.898438 C 89.710938 112.144531 89.851562 111.253906 89.640625 110.394531 C 89.433594 109.535156 88.898438 108.808594 88.144531 108.347656 C 66.664062 95.285156 39.445312 102.492188 38.296875 102.804688 C 36.539062 103.28125 35.496094 105.105469 35.972656 106.867188 C 36.449219 108.625 38.273438 109.667969 40.039062 109.195312 C 40.167969 109.15625 47.558594 107.1875 57.335938 107.1875 Z M 57.335938 107.1875 " fill-opacity="1" fill-rule="nonzero"/><path fill="#ffffff" d="M 81.976562 126.542969 C 81.390625 126.542969 80.796875 126.386719 80.261719 126.058594 C 63.996094 116.167969 42.367188 121.90625 42.152344 121.964844 C 40.386719 122.445312 38.5625 121.402344 38.082031 119.640625 C 37.601562 117.875 38.644531 116.054688 40.40625 115.574219 C 41.402344 115.300781 65.035156 109.046875 83.703125 120.398438 C 85.265625 121.351562 85.761719 123.390625 84.8125 124.953125 C 84.1875 125.976562 83.097656 126.542969 81.976562 126.542969 Z M 81.976562 126.542969 " fill-opacity="1" fill-rule="nonzero"/><path fill="#1f212b" d="M 81.976562 127.09375 C 81.269531 127.09375 80.578125 126.902344 79.972656 126.53125 C 64 116.816406 42.511719 122.4375 42.292969 122.496094 C 41.300781 122.769531 40.257812 122.636719 39.363281 122.125 C 38.464844 121.613281 37.824219 120.78125 37.550781 119.785156 C 36.992188 117.730469 38.207031 115.601562 40.261719 115.039062 C 41.269531 114.765625 65.121094 108.449219 83.988281 119.929688 C 85.808594 121.035156 86.390625 123.417969 85.285156 125.238281 C 84.574219 126.398438 83.339844 127.09375 81.976562 127.09375 Z M 56.914062 119.730469 C 64.179688 119.730469 72.960938 120.972656 80.546875 125.589844 C 80.980469 125.851562 81.472656 125.992188 81.980469 125.992188 C 82.953125 125.992188 83.835938 125.496094 84.34375 124.664062 C 85.132812 123.363281 84.71875 121.664062 83.417969 120.871094 C 64.949219 109.640625 41.542969 115.835938 40.554688 116.105469 C 39.085938 116.503906 38.21875 118.027344 38.617188 119.496094 C 38.8125 120.207031 39.269531 120.796875 39.910156 121.164062 C 40.550781 121.53125 41.296875 121.625 42.007812 121.429688 C 42.125 121.398438 48.5 119.730469 56.914062 119.730469 Z M 56.914062 119.730469 " fill-opacity="1" fill-rule="nonzero"/><path fill="#ffffff" d="M 77.117188 137.300781 C 76.628906 137.300781 76.132812 137.171875 75.683594 136.898438 C 61.539062 128.296875 42.722656 133.28125 42.535156 133.335938 C 41.0625 133.734375 39.546875 132.867188 39.144531 131.398438 C 38.746094 129.925781 39.609375 128.410156 41.082031 128.007812 C 41.945312 127.773438 62.398438 122.359375 78.554688 132.183594 C 79.855469 132.976562 80.269531 134.671875 79.476562 135.976562 C 78.957031 136.832031 78.046875 137.300781 77.117188 137.300781 Z M 77.117188 137.300781 " fill-opacity="1" fill-rule="nonzero"/><path fill="#1f212b" d="M 77.117188 137.855469 C 76.507812 137.855469 75.914062 137.6875 75.394531 137.371094 C 61.453125 128.886719 42.867188 133.8125 42.679688 133.867188 C 40.917969 134.34375 39.09375 133.300781 38.613281 131.542969 C 38.132812 129.777344 39.175781 127.953125 40.9375 127.472656 C 41.8125 127.234375 62.519531 121.785156 78.839844 131.710938 C 79.59375 132.171875 80.125 132.898438 80.335938 133.757812 C 80.542969 134.617188 80.40625 135.507812 79.945312 136.261719 C 79.34375 137.257812 78.285156 137.855469 77.117188 137.855469 Z M 55.382812 131.292969 C 61.691406 131.292969 69.328125 132.386719 75.972656 136.425781 C 76.984375 137.042969 78.394531 136.695312 79.003906 135.6875 C 79.3125 135.183594 79.402344 134.589844 79.265625 134.015625 C 79.125 133.445312 78.769531 132.960938 78.265625 132.652344 C 62.347656 122.972656 42.082031 128.304688 41.226562 128.539062 C 40.054688 128.859375 39.355469 130.074219 39.675781 131.25 C 39.996094 132.421875 41.214844 133.121094 42.390625 132.800781 C 42.492188 132.773438 48.039062 131.292969 55.382812 131.292969 Z M 55.382812 131.292969 " fill-opacity="1" fill-rule="nonzero"/><g clip-path="url(#id11)"><path fill="#c7ede6" d="M 110.65625 173.550781 C 111.875 171.242188 112.574219 168.613281 112.574219 165.816406 C 112.574219 158.710938 108.101562 152.664062 101.816406 150.28125 C 101.816406 150.277344 101.816406 150.269531 101.816406 150.257812 C 101.816406 137.816406 91.699219 127.726562 79.222656 127.726562 C 68.695312 127.726562 59.878906 134.917969 57.367188 144.632812 C 55.78125 144.113281 54.089844 143.820312 52.324219 143.820312 C 44.050781 143.820312 37.238281 150.039062 36.304688 158.039062 C 30.707031 159.222656 26.503906 164.175781 26.503906 170.109375 C 26.503906 176.921875 32.042969 182.445312 38.878906 182.445312 C 39.066406 182.445312 39.257812 182.433594 39.441406 182.421875 C 39.4375 182.609375 39.414062 182.792969 39.414062 182.984375 C 39.414062 195.132812 49.289062 204.976562 61.472656 204.976562 C 68.394531 204.976562 74.570312 201.789062 78.613281 196.808594 C 80.957031 199.195312 84.214844 200.6875 87.828125 200.6875 C 92.832031 200.6875 97.164062 197.84375 99.304688 193.691406 C 100.4375 194.050781 101.640625 194.25 102.890625 194.25 C 109.429688 194.25 114.726562 188.964844 114.726562 182.445312 C 114.726562 178.894531 113.144531 175.714844 110.65625 173.550781 Z M 110.65625 173.550781 " fill-opacity="1" fill-rule="nonzero"/></g><path fill="#fdfcef" d="M 87.964844 150.796875 C 87.964844 150.796875 84.046875 150.796875 81.375 150.796875 C 78.699219 150.796875 76.535156 148.632812 76.535156 145.96875 C 76.535156 143.464844 78.449219 141.429688 80.894531 141.1875 C 80.871094 140.992188 80.835938 140.804688 80.835938 140.601562 C 80.835938 137.9375 83.003906 135.773438 85.679688 135.773438 C 87.226562 135.773438 88.585938 136.511719 89.472656 137.636719 C 89.625 134.808594 91.949219 132.554688 94.824219 132.554688 C 97.792969 132.554688 100.203125 134.957031 100.203125 137.921875 C 100.203125 138.398438 100.121094 138.855469 100 139.296875 C 100.691406 138.460938 101.722656 137.921875 102.890625 137.921875 C 104.808594 137.921875 106.371094 139.351562 106.609375 141.199219 C 106.804688 141.175781 106.996094 141.140625 107.195312 141.140625 C 109.871094 141.140625 112.039062 143.300781 112.039062 145.96875 C 112.039062 148.632812 109.871094 150.796875 107.195312 150.796875 C 104.523438 150.796875 96.976562 150.796875 96.976562 150.796875 L 91.191406 150.796875 L 91.191406 151.332031 L 87.964844 151.332031 Z M 87.964844 150.796875 " fill-opacity="1" fill-rule="nonzero"/><path fill="#472b29" d="M 94.824219 132.019531 C 98.085938 132.019531 100.742188 134.667969 100.742188 137.921875 C 100.742188 137.9375 100.742188 137.953125 100.742188 137.972656 C 101.386719 137.589844 102.128906 137.382812 102.890625 137.382812 C 104.863281 137.382812 106.5625 138.738281 107.042969 140.609375 C 107.09375 140.605469 107.144531 140.601562 107.195312 140.601562 C 110.160156 140.601562 112.574219 143.007812 112.574219 145.96875 C 112.574219 148.925781 110.160156 151.332031 107.195312 151.332031 L 91.191406 151.332031 C 90.894531 151.332031 90.652344 151.09375 90.652344 150.796875 C 90.652344 150.5 90.894531 150.257812 91.191406 150.257812 L 107.195312 150.257812 C 109.570312 150.257812 111.5 148.335938 111.5 145.96875 C 111.5 143.601562 109.570312 141.675781 107.195312 141.675781 C 107.070312 141.675781 106.949219 141.695312 106.828125 141.710938 L 106.675781 141.730469 C 106.652344 141.734375 106.632812 141.734375 106.609375 141.734375 C 106.34375 141.734375 106.113281 141.535156 106.074219 141.265625 C 105.871094 139.664062 104.5 138.457031 102.890625 138.457031 C 101.941406 138.457031 101.039062 138.886719 100.417969 139.636719 C 100.3125 139.765625 100.15625 139.832031 100 139.832031 C 99.917969 139.832031 99.832031 139.8125 99.757812 139.773438 C 99.53125 139.65625 99.417969 139.402344 99.484375 139.15625 C 99.605469 138.691406 99.664062 138.296875 99.664062 137.921875 C 99.664062 135.257812 97.492188 133.09375 94.824219 133.09375 C 92.261719 133.09375 90.144531 135.101562 90.007812 137.667969 C 89.996094 137.890625 89.847656 138.082031 89.632812 138.148438 C 89.582031 138.167969 89.527344 138.175781 89.472656 138.175781 C 89.308594 138.175781 89.152344 138.101562 89.050781 137.96875 C 88.21875 136.914062 86.992188 136.3125 85.679688 136.3125 C 83.304688 136.3125 81.375 138.234375 81.375 140.601562 C 81.375 140.730469 81.394531 140.851562 81.410156 140.972656 L 81.429688 141.121094 C 81.445312 141.265625 81.40625 141.410156 81.316406 141.523438 C 81.226562 141.636719 81.09375 141.707031 80.949219 141.722656 C 78.738281 141.941406 77.070312 143.765625 77.070312 145.96875 C 77.070312 148.335938 79 150.257812 81.375 150.257812 L 87.964844 150.257812 C 88.261719 150.257812 88.503906 150.5 88.503906 150.796875 C 88.503906 151.09375 88.261719 151.332031 87.964844 151.332031 L 81.375 151.332031 C 78.410156 151.332031 75.996094 148.925781 75.996094 145.96875 C 75.996094 143.394531 77.8125 141.234375 80.300781 140.734375 C 80.300781 140.691406 80.300781 140.648438 80.300781 140.601562 C 80.300781 137.644531 82.710938 135.238281 85.679688 135.238281 C 86.945312 135.238281 88.144531 135.683594 89.101562 136.488281 C 89.746094 133.90625 92.074219 132.019531 94.824219 132.019531 Z M 94.824219 132.019531 " fill-opacity="1" fill-rule="nonzero"/><path fill="#472b29" d="M 96.4375 139.53125 C 97.945312 139.53125 99.242188 140.601562 99.570312 142.042969 C 99.964844 141.804688 100.417969 141.675781 100.875 141.675781 C 102.167969 141.675781 103.238281 142.636719 103.40625 143.894531 C 103.625 143.84375 103.832031 143.820312 104.035156 143.820312 C 105.679688 143.820312 107.058594 145.109375 107.175781 146.753906 C 107.183594 146.902344 107.074219 147.03125 106.925781 147.039062 C 106.917969 147.039062 106.914062 147.039062 106.90625 147.039062 C 106.765625 147.039062 106.648438 146.933594 106.636719 146.792969 C 106.542969 145.429688 105.398438 144.359375 104.035156 144.359375 C 103.789062 144.359375 103.53125 144.402344 103.242188 144.496094 C 103.21875 144.503906 103.195312 144.503906 103.171875 144.503906 C 103.109375 144.503906 103.050781 144.484375 103.003906 144.449219 C 102.933594 144.398438 102.890625 144.308594 102.890625 144.222656 C 102.890625 143.113281 101.988281 142.210938 100.875 142.210938 C 100.394531 142.210938 99.921875 142.394531 99.550781 142.71875 C 99.5 142.765625 99.4375 142.789062 99.375 142.789062 C 99.339844 142.789062 99.304688 142.78125 99.273438 142.765625 C 99.179688 142.730469 99.113281 142.640625 99.105469 142.539062 C 98.996094 141.152344 97.824219 140.066406 96.4375 140.066406 C 96.214844 140.066406 95.980469 140.101562 95.703125 140.179688 C 95.679688 140.1875 95.652344 140.191406 95.628906 140.191406 C 95.511719 140.191406 95.40625 140.113281 95.371094 139.996094 C 95.328125 139.855469 95.414062 139.707031 95.554688 139.664062 C 95.878906 139.574219 96.160156 139.53125 96.4375 139.53125 Z M 81.5 141.140625 C 82.925781 141.140625 84.199219 142.101562 84.59375 143.480469 C 84.632812 143.625 84.550781 143.769531 84.40625 143.8125 C 84.382812 143.820312 84.355469 143.820312 84.332031 143.820312 C 84.214844 143.820312 84.109375 143.746094 84.074219 143.625 C 83.746094 142.480469 82.6875 141.675781 81.5 141.675781 C 81.375 141.675781 81.253906 141.691406 81.132812 141.707031 C 81.121094 141.710938 81.109375 141.710938 81.09375 141.710938 C 80.964844 141.710938 80.847656 141.613281 80.832031 141.476562 C 80.808594 141.332031 80.914062 141.195312 81.0625 141.175781 C 81.203125 141.15625 81.351562 141.140625 81.5 141.140625 Z M 81.5 141.140625 " fill-opacity="1" fill-rule="nonzero"/><g clip-path="url(#id12)"><path fill="#ffffff" d="M 33.394531 165.28125 L 22.738281 165.28125 C 22.441406 165.28125 22.203125 165.039062 22.203125 164.742188 C 22.203125 164.449219 22.441406 164.207031 22.738281 164.207031 L 33.394531 164.207031 C 33.691406 164.207031 33.933594 164.449219 33.933594 164.742188 C 33.933594 165.039062 33.695312 165.28125 33.394531 165.28125 Z M 36.726562 165.28125 L 35.648438 165.28125 C 35.351562 165.28125 35.113281 165.039062 35.113281 164.742188 C 35.113281 164.449219 35.351562 164.207031 35.648438 164.207031 L 36.726562 164.207031 C 37.023438 164.207031 37.261719 164.449219 37.261719 164.742188 C 37.261719 165.039062 37.023438 165.28125 36.726562 165.28125 Z M 42.09375 167.425781 L 32.421875 167.425781 C 32.125 167.425781 31.882812 167.1875 31.882812 166.890625 C 31.882812 166.59375 32.125 166.351562 32.421875 166.351562 L 42.09375 166.351562 C 42.390625 166.351562 42.632812 166.59375 42.632812 166.890625 C 42.632812 167.1875 42.390625 167.425781 42.09375 167.425781 Z M 30.269531 167.425781 L 29.195312 167.425781 C 28.898438 167.425781 28.65625 167.1875 28.65625 166.890625 C 28.65625 166.59375 28.898438 166.351562 29.195312 166.351562 L 30.269531 166.351562 C 30.566406 166.351562 30.808594 166.59375 30.808594 166.890625 C 30.808594 167.1875 30.570312 167.425781 30.269531 167.425781 Z M 27.042969 167.425781 L 24.890625 167.425781 C 24.59375 167.425781 24.351562 167.1875 24.351562 166.890625 C 24.351562 166.59375 24.59375 166.351562 24.890625 166.351562 L 27.042969 166.351562 C 27.339844 166.351562 27.582031 166.59375 27.582031 166.890625 C 27.582031 167.1875 27.339844 167.425781 27.042969 167.425781 Z M 33.496094 169.570312 L 31.347656 169.570312 C 31.050781 169.570312 30.808594 169.332031 30.808594 169.035156 C 30.808594 168.738281 31.050781 168.5 31.347656 168.5 L 33.496094 168.5 C 33.796875 168.5 34.035156 168.738281 34.035156 169.035156 C 34.035156 169.332031 33.796875 169.570312 33.496094 169.570312 Z M 36.726562 159.914062 C 36.535156 159.914062 35.839844 159.914062 35.648438 159.914062 C 35.351562 159.914062 35.113281 160.15625 35.113281 160.453125 C 35.113281 160.75 35.351562 160.988281 35.648438 160.988281 C 35.839844 160.988281 36.535156 160.988281 36.726562 160.988281 C 37.023438 160.988281 37.261719 160.75 37.261719 160.453125 C 37.261719 160.15625 37.023438 159.914062 36.726562 159.914062 Z M 36.726562 162.0625 C 36.535156 162.0625 31.535156 162.0625 31.347656 162.0625 C 31.050781 162.0625 30.808594 162.300781 30.808594 162.597656 C 30.808594 162.894531 31.050781 163.132812 31.347656 163.132812 C 31.535156 163.132812 36.535156 163.132812 36.726562 163.132812 C 37.023438 163.132812 37.261719 162.894531 37.261719 162.597656 C 37.261719 162.300781 37.023438 162.0625 36.726562 162.0625 Z M 42.105469 164.207031 C 41.914062 164.207031 39.066406 164.207031 38.878906 164.207031 C 38.582031 164.207031 38.339844 164.449219 38.339844 164.742188 C 38.339844 165.039062 38.582031 165.28125 38.878906 165.28125 C 39.066406 165.28125 41.914062 165.28125 42.105469 165.28125 C 42.402344 165.28125 42.644531 165.039062 42.644531 164.742188 C 42.644531 164.449219 42.402344 164.207031 42.105469 164.207031 Z M 110.960938 182.445312 L 100.203125 182.445312 C 99.90625 182.445312 99.664062 182.207031 99.664062 181.910156 C 99.664062 181.613281 99.90625 181.375 100.203125 181.375 L 110.960938 181.375 C 111.257812 181.375 111.5 181.613281 111.5 181.910156 C 111.5 182.207031 111.257812 182.445312 110.960938 182.445312 Z M 115.265625 182.445312 L 113.113281 182.445312 C 112.816406 182.445312 112.574219 182.207031 112.574219 181.910156 C 112.574219 181.613281 112.816406 181.375 113.113281 181.375 L 115.265625 181.375 C 115.5625 181.375 115.804688 181.613281 115.804688 181.910156 C 115.804688 182.207031 115.5625 182.445312 115.265625 182.445312 Z M 120.644531 184.59375 L 109.886719 184.59375 C 109.589844 184.59375 109.347656 184.351562 109.347656 184.054688 C 109.347656 183.761719 109.589844 183.519531 109.886719 183.519531 L 120.644531 183.519531 C 120.941406 183.519531 121.183594 183.761719 121.183594 184.054688 C 121.183594 184.351562 120.941406 184.59375 120.644531 184.59375 Z M 107.734375 184.59375 L 106.65625 184.59375 C 106.359375 184.59375 106.121094 184.351562 106.121094 184.054688 C 106.121094 183.761719 106.359375 183.519531 106.65625 183.519531 L 107.734375 183.519531 C 108.03125 183.519531 108.273438 183.761719 108.273438 184.054688 C 108.273438 184.351562 108.03125 184.59375 107.734375 184.59375 Z M 104.371094 184.59375 L 102.355469 184.59375 C 102.058594 184.59375 101.816406 184.351562 101.816406 184.054688 C 101.816406 183.761719 102.058594 183.519531 102.355469 183.519531 L 104.371094 183.519531 C 104.667969 183.519531 104.910156 183.761719 104.910156 184.054688 C 104.910156 184.351562 104.667969 184.59375 104.371094 184.59375 Z M 114.1875 180.300781 L 108.808594 180.300781 C 108.511719 180.300781 108.273438 180.0625 108.273438 179.765625 C 108.273438 179.46875 108.511719 179.226562 108.808594 179.226562 L 114.1875 179.226562 C 114.484375 179.226562 114.726562 179.46875 114.726562 179.765625 C 114.726562 180.0625 114.488281 180.300781 114.1875 180.300781 Z M 110.960938 186.738281 L 108.808594 186.738281 C 108.511719 186.738281 108.273438 186.5 108.273438 186.203125 C 108.273438 185.90625 108.511719 185.664062 108.808594 185.664062 L 110.960938 185.664062 C 111.257812 185.664062 111.5 185.90625 111.5 186.203125 C 111.5 186.5 111.257812 186.738281 110.960938 186.738281 Z M 110.960938 186.738281 " fill-opacity="1" fill-rule="nonzero"/></g><path fill="#78cdd4" d="M 70.347656 166.710938 L 94.554688 166.710938 L 94.554688 144.894531 L 70.347656 148.554688 Z M 70.347656 166.710938 " fill-opacity="1" fill-rule="nonzero"/><path fill="#472b29" d="M 94.554688 167.460938 L 70.347656 167.460938 C 69.929688 167.460938 69.59375 167.125 69.59375 166.710938 L 69.59375 148.554688 C 69.59375 148.183594 69.867188 147.867188 70.234375 147.8125 L 94.441406 144.152344 C 94.660156 144.121094 94.878906 144.183594 95.046875 144.324219 C 95.210938 144.46875 95.308594 144.675781 95.308594 144.894531 L 95.308594 166.710938 C 95.308594 167.125 94.96875 167.460938 94.554688 167.460938 Z M 71.101562 165.960938 L 93.800781 165.960938 L 93.800781 145.769531 L 71.101562 149.199219 Z M 71.101562 165.960938 " fill-opacity="1" fill-rule="nonzero"/><path fill="#78cdd4" d="M 66.582031 166.710938 L 66.582031 149.019531 L 49.996094 151.746094 L 49.996094 166.710938 Z M 66.582031 166.710938 " fill-opacity="1" fill-rule="nonzero"/><path fill="#472b29" d="M 66.582031 167.460938 L 49.996094 167.460938 C 49.578125 167.460938 49.242188 167.125 49.242188 166.710938 L 49.242188 151.746094 C 49.242188 151.378906 49.507812 151.066406 49.871094 151.007812 L 66.457031 148.28125 C 66.679688 148.246094 66.902344 148.308594 67.070312 148.449219 C 67.238281 148.59375 67.335938 148.800781 67.335938 149.023438 L 67.335938 166.710938 C 67.335938 167.125 66.996094 167.460938 66.582031 167.460938 Z M 50.75 165.960938 L 65.828125 165.960938 L 65.828125 149.90625 L 50.75 152.382812 Z M 50.75 165.960938 " fill-opacity="1" fill-rule="nonzero"/><path fill="#78cdd4" d="M 66.582031 170.464844 L 49.996094 170.464844 L 49.996094 185.308594 L 66.582031 188.011719 Z M 66.582031 170.464844 " fill-opacity="1" fill-rule="nonzero"/><path fill="#472b29" d="M 66.582031 188.761719 C 66.539062 188.761719 66.5 188.757812 66.460938 188.75 L 49.871094 186.046875 C 49.507812 185.988281 49.242188 185.675781 49.242188 185.308594 L 49.242188 170.464844 C 49.242188 170.050781 49.578125 169.714844 49.996094 169.714844 L 66.582031 169.714844 C 66.996094 169.714844 67.335938 170.050781 67.335938 170.464844 L 67.335938 188.011719 C 67.335938 188.230469 67.238281 188.441406 67.070312 188.582031 C 66.933594 188.699219 66.757812 188.761719 66.582031 188.761719 Z M 50.75 184.667969 L 65.828125 187.125 L 65.828125 171.214844 L 50.75 171.214844 Z M 50.75 184.667969 " fill-opacity="1" fill-rule="nonzero"/><path fill="#78cdd4" d="M 70.347656 170.464844 L 70.347656 188.472656 L 94.554688 192.101562 L 94.554688 170.464844 Z M 70.347656 170.464844 " fill-opacity="1" fill-rule="nonzero"/><path fill="#472b29" d="M 94.554688 192.855469 C 94.515625 192.855469 94.480469 192.851562 94.441406 192.84375 L 70.234375 189.214844 C 69.867188 189.160156 69.59375 188.84375 69.59375 188.472656 L 69.59375 170.464844 C 69.59375 170.050781 69.929688 169.714844 70.347656 169.714844 L 94.554688 169.714844 C 94.96875 169.714844 95.308594 170.050781 95.308594 170.464844 L 95.308594 192.101562 C 95.308594 192.320312 95.210938 192.527344 95.042969 192.671875 C 94.910156 192.789062 94.734375 192.855469 94.554688 192.855469 Z M 71.101562 187.828125 L 93.800781 191.230469 L 93.800781 171.214844 L 71.101562 171.214844 Z M 71.101562 187.828125 " fill-opacity="1" fill-rule="nonzero"/><path fill="#472b29" d="M 91.59375 164.207031 C 91.296875 164.207031 91.058594 163.96875 91.058594 163.671875 L 91.058594 156.160156 C 91.058594 155.863281 91.296875 155.625 91.59375 155.625 C 91.890625 155.625 92.132812 155.863281 92.132812 156.160156 L 92.132812 163.671875 C 92.132812 163.96875 91.890625 164.207031 91.59375 164.207031 Z M 91.59375 164.207031 " fill-opacity="1" fill-rule="nonzero"/><path fill="#472b29" d="M 63.621094 181.375 C 63.324219 181.375 63.085938 181.132812 63.085938 180.835938 L 63.085938 173.328125 C 63.085938 173.03125 63.324219 172.789062 63.621094 172.789062 C 63.917969 172.789062 64.160156 173.03125 64.160156 173.328125 L 64.160156 180.835938 C 64.160156 181.132812 63.917969 181.375 63.621094 181.375 Z M 63.621094 181.375 " fill-opacity="1" fill-rule="nonzero"/><path fill="#472b29" d="M 52.863281 158.84375 C 52.566406 158.84375 52.324219 158.601562 52.324219 158.304688 L 52.324219 154.015625 C 52.324219 153.71875 52.566406 153.476562 52.863281 153.476562 C 53.160156 153.476562 53.402344 153.71875 53.402344 154.015625 L 53.402344 158.304688 C 53.402344 158.601562 53.160156 158.84375 52.863281 158.84375 Z M 52.863281 158.84375 " fill-opacity="1" fill-rule="nonzero"/><path fill="#472b29" d="M 52.863281 164.207031 C 52.566406 164.207031 52.324219 163.96875 52.324219 163.671875 L 52.324219 160.453125 C 52.324219 160.15625 52.566406 159.914062 52.863281 159.914062 C 53.160156 159.914062 53.402344 160.15625 53.402344 160.453125 L 53.402344 163.671875 C 53.402344 163.96875 53.160156 164.207031 52.863281 164.207031 Z M 52.863281 164.207031 " fill-opacity="1" fill-rule="nonzero"/><path fill="#472b29" d="M 52.863281 177.082031 C 52.566406 177.082031 52.324219 176.84375 52.324219 176.546875 L 52.324219 173.328125 C 52.324219 173.03125 52.566406 172.789062 52.863281 172.789062 C 53.160156 172.789062 53.402344 173.03125 53.402344 173.328125 L 53.402344 176.546875 C 53.402344 176.84375 53.160156 177.082031 52.863281 177.082031 Z M 52.863281 177.082031 " fill-opacity="1" fill-rule="nonzero"/><path fill="#472b29" d="M 63.621094 185.664062 C 63.324219 185.664062 63.085938 185.425781 63.085938 185.128906 L 63.085938 182.984375 C 63.085938 182.6875 63.324219 182.445312 63.621094 182.445312 C 63.917969 182.445312 64.160156 182.6875 64.160156 182.984375 L 64.160156 185.128906 C 64.160156 185.425781 63.917969 185.664062 63.621094 185.664062 Z M 63.621094 185.664062 " fill-opacity="1" fill-rule="nonzero"/><path fill="#472b29" d="M 73.304688 181.375 C 73.007812 181.375 72.769531 181.132812 72.769531 180.835938 L 72.769531 173.328125 C 72.769531 173.03125 73.007812 172.789062 73.304688 172.789062 C 73.601562 172.789062 73.84375 173.03125 73.84375 173.328125 L 73.84375 180.835938 C 73.84375 181.132812 73.601562 181.375 73.304688 181.375 Z M 73.304688 181.375 " fill-opacity="1" fill-rule="nonzero"/><path fill="#472b29" d="M 82.988281 150.257812 C 82.71875 150.257812 82.488281 150.0625 82.453125 149.789062 C 82.417969 149.496094 82.628906 149.226562 82.921875 149.191406 L 91.527344 148.117188 C 91.824219 148.078125 92.09375 148.289062 92.128906 148.582031 C 92.164062 148.878906 91.957031 149.144531 91.664062 149.183594 L 83.054688 150.253906 C 83.03125 150.257812 83.011719 150.257812 82.988281 150.257812 Z M 82.988281 150.257812 " fill-opacity="1" fill-rule="nonzero"/><path fill="#472b29" d="M 60.394531 164.207031 L 52.863281 164.207031 C 52.566406 164.207031 52.324219 163.96875 52.324219 163.671875 C 52.324219 163.375 52.566406 163.132812 52.863281 163.132812 L 60.394531 163.132812 C 60.691406 163.132812 60.933594 163.375 60.933594 163.671875 C 60.933594 163.96875 60.691406 164.207031 60.394531 164.207031 Z M 60.394531 164.207031 " fill-opacity="1" fill-rule="nonzero"/><path fill="#472b29" d="M 59.320312 173.863281 L 52.863281 173.863281 C 52.566406 173.863281 52.324219 173.625 52.324219 173.328125 C 52.324219 173.03125 52.566406 172.789062 52.863281 172.789062 L 59.320312 172.789062 C 59.617188 172.789062 59.855469 173.03125 59.855469 173.328125 C 59.855469 173.625 59.617188 173.863281 59.320312 173.863281 Z M 59.320312 173.863281 " fill-opacity="1" fill-rule="nonzero"/><path fill="#472b29" d="M 79.402344 174.042969 C 79.398438 174.042969 79.390625 174.042969 79.386719 174.042969 L 73.289062 173.863281 C 72.992188 173.855469 72.757812 173.609375 72.769531 173.3125 C 72.777344 173.015625 73.046875 172.820312 73.320312 172.789062 L 79.417969 172.96875 C 79.714844 172.980469 79.949219 173.226562 79.941406 173.523438 C 79.929688 173.8125 79.691406 174.042969 79.402344 174.042969 Z M 79.402344 174.042969 " fill-opacity="1" fill-rule="nonzero"/><path fill="#472b29" d="M 88.457031 174.398438 C 88.453125 174.398438 88.449219 174.398438 88.441406 174.398438 L 82.34375 174.222656 C 82.046875 174.210938 81.816406 173.964844 81.824219 173.667969 C 81.832031 173.371094 82.121094 173.140625 82.378906 173.148438 L 88.472656 173.328125 C 88.769531 173.335938 89.003906 173.582031 88.996094 173.878906 C 88.988281 174.171875 88.746094 174.398438 88.457031 174.398438 Z M 88.457031 174.398438 " fill-opacity="1" fill-rule="nonzero"/><path fill="#472b29" d="M 91.59375 153.476562 C 91.296875 153.476562 91.058594 153.238281 91.058594 152.941406 L 91.058594 148.648438 C 91.058594 148.355469 91.296875 148.113281 91.59375 148.113281 C 91.890625 148.113281 92.132812 148.355469 92.132812 148.648438 L 92.132812 152.941406 C 92.132812 153.238281 91.890625 153.476562 91.59375 153.476562 Z M 91.59375 153.476562 " fill-opacity="1" fill-rule="nonzero"/><path fill="#fdfcef" d="M 52.863281 192.640625 C 52.863281 192.640625 54.550781 192.640625 56.628906 192.640625 C 58.710938 192.640625 60.394531 190.957031 60.394531 188.882812 C 60.394531 186.972656 58.957031 185.414062 57.109375 185.175781 C 57.136719 184.984375 57.167969 184.792969 57.167969 184.59375 C 57.167969 182.519531 55.480469 180.835938 53.402344 180.835938 C 52.292969 180.835938 51.304688 181.324219 50.617188 182.085938 C 50.203125 180.148438 48.476562 178.691406 46.410156 178.691406 C 44.03125 178.691406 42.105469 180.613281 42.105469 182.984375 C 42.105469 183.1875 42.136719 183.382812 42.164062 183.582031 C 41.703125 183.214844 41.128906 182.984375 40.492188 182.984375 C 39.171875 182.984375 38.074219 183.933594 37.851562 185.1875 C 37.65625 185.15625 37.464844 185.128906 37.261719 185.128906 C 35.183594 185.128906 33.496094 186.808594 33.496094 188.882812 C 33.496094 190.957031 35.183594 192.640625 37.261719 192.640625 C 39.34375 192.640625 45.332031 192.640625 45.332031 192.640625 L 45.332031 193.175781 L 52.863281 193.175781 Z M 52.863281 192.640625 " fill-opacity="1" fill-rule="nonzero"/><path fill="#472b29" d="M 54.746094 187.8125 C 54.597656 187.8125 54.476562 187.691406 54.476562 187.542969 C 54.476562 186.230469 55.546875 185.164062 56.863281 185.164062 C 56.902344 185.171875 57.65625 185.164062 58.203125 185.308594 C 58.34375 185.347656 58.429688 185.496094 58.390625 185.636719 C 58.351562 185.78125 58.207031 185.867188 58.0625 185.828125 C 57.585938 185.699219 56.878906 185.699219 56.863281 185.699219 C 55.84375 185.699219 55.015625 186.527344 55.015625 187.542969 C 55.015625 187.691406 54.894531 187.8125 54.746094 187.8125 Z M 47.484375 192.101562 C 47.335938 192.101562 47.210938 192.15625 47.105469 192.261719 C 47 192.363281 46.945312 192.492188 46.945312 192.640625 C 46.945312 192.789062 47 192.914062 47.105469 193.019531 C 47.210938 193.125 47.335938 193.175781 47.484375 193.175781 C 47.632812 193.175781 47.761719 193.125 47.863281 193.019531 C 47.96875 192.914062 48.023438 192.789062 48.023438 192.640625 C 48.023438 192.492188 47.96875 192.363281 47.863281 192.261719 C 47.761719 192.15625 47.632812 192.101562 47.484375 192.101562 Z M 47.484375 192.101562 " fill-opacity="1" fill-rule="nonzero"/><path fill="#472b29" d="M 56.628906 193.175781 L 52.863281 193.175781 C 52.566406 193.175781 52.324219 192.9375 52.324219 192.640625 C 52.324219 192.34375 52.566406 192.101562 52.863281 192.101562 L 56.628906 192.101562 C 58.410156 192.101562 59.855469 190.660156 59.855469 188.882812 C 59.855469 187.277344 58.648438 185.914062 57.039062 185.710938 C 56.894531 185.691406 56.765625 185.613281 56.679688 185.5 C 56.59375 185.382812 56.554688 185.238281 56.578125 185.09375 C 56.601562 184.929688 56.628906 184.765625 56.628906 184.59375 C 56.628906 182.816406 55.179688 181.375 53.402344 181.375 C 52.488281 181.375 51.640625 181.753906 51.015625 182.445312 C 50.878906 182.597656 50.667969 182.660156 50.476562 182.605469 C 50.28125 182.554688 50.132812 182.394531 50.089844 182.199219 C 49.722656 180.476562 48.175781 179.226562 46.410156 179.226562 C 44.332031 179.226562 42.644531 180.914062 42.644531 182.984375 C 42.644531 183.136719 42.664062 183.285156 42.6875 183.433594 C 42.71875 183.648438 42.621094 183.902344 42.425781 184.011719 C 42.234375 184.121094 42 184.136719 41.828125 184 C 41.4375 183.6875 40.972656 183.519531 40.492188 183.519531 C 39.453125 183.519531 38.5625 184.261719 38.378906 185.285156 C 38.328125 185.570312 38.0625 185.761719 37.765625 185.71875 C 37.601562 185.691406 37.4375 185.664062 37.261719 185.664062 C 35.484375 185.664062 34.035156 187.109375 34.035156 188.882812 C 34.035156 190.660156 35.484375 192.101562 37.261719 192.101562 L 45.332031 192.101562 C 45.628906 192.101562 45.871094 192.34375 45.871094 192.640625 C 45.871094 192.9375 45.628906 193.175781 45.332031 193.175781 L 37.261719 193.175781 C 34.890625 193.175781 32.960938 191.25 32.960938 188.882812 C 32.960938 186.515625 34.890625 184.59375 37.261719 184.59375 C 37.328125 184.59375 37.386719 184.59375 37.449219 184.597656 C 37.894531 183.328125 39.105469 182.445312 40.492188 182.445312 C 40.867188 182.445312 41.234375 182.511719 41.578125 182.640625 C 41.757812 180.136719 43.855469 178.15625 46.410156 178.15625 C 48.378906 178.15625 50.136719 179.363281 50.875 181.132812 C 51.609375 180.597656 52.492188 180.300781 53.402344 180.300781 C 55.773438 180.300781 57.707031 182.226562 57.707031 184.59375 C 57.707031 184.644531 57.703125 184.695312 57.699219 184.746094 C 59.578125 185.226562 60.933594 186.917969 60.933594 188.882812 C 60.933594 191.25 59.003906 193.175781 56.628906 193.175781 Z M 56.628906 193.175781 " fill-opacity="1" fill-rule="nonzero"/><path fill="#472b29" d="M 50.710938 192.101562 C 50.542969 192.101562 49.808594 192.101562 49.636719 192.101562 C 49.339844 192.101562 49.097656 192.34375 49.097656 192.640625 C 49.097656 192.9375 49.339844 193.175781 49.636719 193.175781 C 49.808594 193.175781 50.542969 193.175781 50.710938 193.175781 C 51.007812 193.175781 51.25 192.9375 51.25 192.640625 C 51.25 192.34375 51.007812 192.101562 50.710938 192.101562 Z M 50.710938 192.101562 " fill-opacity="1" fill-rule="nonzero"/></svg>